<?xml version="1.0" encoding="utf-8"?>
<!-- Generator: Adobe Illustrator 19.2.0, SVG Export Plug-In . SVG Version: 6.00 Build 0)  -->
<!DOCTYPE svg PUBLIC "-//W3C//DTD SVG 1.1//EN" "http://www.w3.org/Graphics/SVG/1.1/DTD/svg11.dtd">
<svg version="1.1" id="Layer_1" xmlns="http://www.w3.org/2000/svg" xmlns:xlink="http://www.w3.org/1999/xlink" x="0px" y="0px"
	 viewBox="0 0 2511.3 2300" style="enable-background:new 0 0 2511.3 2300;" xml:space="preserve">
<style type="text/css">
	.st0{display:none;}
	.st1{display:inline;fill:#F0F2F5;stroke:#C1D2DC;stroke-miterlimit:10;}
	.st2{fill:#0F5567;}
	.st3{fill:#BFDC8C;}
	.st4{fill:none;stroke:#94C941;stroke-width:4;stroke-miterlimit:10;}
	.st5{fill:#94C941;}
	.st6{fill:#F06565;}
	.st7{opacity:0.37;fill:#94C941;enable-background:new    ;}
	.st8{fill:none;stroke:#94C941;stroke-width:10;stroke-miterlimit:10;}
	.st9{fill:#0E3A51;}
	.st10{fill:#6E9D40;}
	.st11{fill:none;stroke:#0E3A51;stroke-width:4;stroke-miterlimit:10;stroke-dasharray:12;}
	.st12{opacity:0.9;}
	.st13{fill:#137F9B;stroke:#5AC9E8;stroke-width:10;stroke-miterlimit:10;}
	.st14{opacity:0.8;fill:#137F9B;stroke:#C5E8F3;stroke-miterlimit:10;enable-background:new    ;}
	.st15{fill:none;stroke:#5AC9E8;stroke-width:10;stroke-miterlimit:10;}
	.st16{opacity:0.9;fill:#DE3626;enable-background:new    ;}
	.st17{fill:none;stroke:#A72823;stroke-width:10;stroke-miterlimit:10;}
	.st18{opacity:0.9;fill:#E77216;enable-background:new    ;}
	.st19{fill:none;stroke:#BF5A16;stroke-width:10;stroke-miterlimit:10;}
	.st20{opacity:0.9;fill:#94C941;enable-background:new    ;}
	.st21{fill:none;stroke:#6E9D40;stroke-width:10;stroke-miterlimit:10;}
	.st22{opacity:0.9;fill:#11A9CE;enable-background:new    ;}
	.st23{fill:none;stroke:#137F9B;stroke-width:10;stroke-miterlimit:10;}
	.st24{opacity:0.502;fill:#DCDCDC;enable-background:new    ;}
	.st25{fill:#DCDCDC;}
	.st26{fill:#494949;}
	.st27{enable-background:new    ;}
	.st28{fill:#FFFFFF;}
	.st29{fill:#1A84AD;}
	.st30{fill:#1C3B47;}
</style>
<g id="Layer_1_1_" class="st0">
	<rect x="-2857.9" y="-600" class="st1" width="6203.1" height="5209.3"/>
</g>
<g id="Layer_2">
	<g>
		<g>
			<g>
				<polygon class="st2" points="953,1000 779.8,1100 779.8,1300 953,1400 1126.2,1300 1126.2,1100 				"/>
				<g>
					<polygon class="st3" points="864.6,1189.5 779.9,1140.6 779.8,1129 864.5,1177.9 					"/>
					<polygon class="st3" points="864.6,1219.8 779.9,1170.9 779.8,1159.3 864.5,1208.2 					"/>
					<polygon class="st3" points="864.6,1250 779.9,1201.1 779.8,1189.5 864.5,1238.4 					"/>
					<polygon class="st3" points="864.6,1280.3 779.9,1231.4 779.8,1219.8 864.5,1268.7 					"/>
				</g>
				<line class="st4" x1="779.8" y1="1100" x2="953" y2="1200"/>
				<line class="st4" x1="1126.2" y1="1100" x2="953" y2="1200"/>
				<line class="st4" x1="953" y1="1200" x2="953" y2="1400"/>
				<polygon class="st4" points="953,1000 779.8,1100 779.8,1300 953,1400 1126.2,1300 1126.2,1100 				"/>
				<path class="st5" d="M834.3,1281.3c0,4-3.3,6.1-7.3,4.7c-4-1.5-7.3-5.9-7.3-10c0-4,3.3-6.1,7.3-4.7S834.3,1277.2,834.3,1281.3z"
					/>
				<path class="st6" d="M813.5,1269.8c0,4-3.3,6.1-7.3,4.7c-4-1.5-7.3-5.9-7.3-10c0-4,3.3-6.1,7.3-4.7S813.5,1265.7,813.5,1269.8z"
					/>
			</g>
			<g>
				<polygon class="st2" points="1213,1150 1039.8,1250 1039.8,1450 1213,1550 1386.2,1450 1386.2,1250 				"/>
				<g>
					<polygon class="st3" points="1124.6,1339.5 1039.9,1290.6 1039.8,1279 1124.5,1327.9 					"/>
					<polygon class="st3" points="1124.6,1369.8 1039.9,1320.9 1039.8,1309.3 1124.5,1358.2 					"/>
					<polygon class="st3" points="1124.6,1400 1039.9,1351.1 1039.8,1339.5 1124.5,1388.4 					"/>
					<polygon class="st3" points="1124.6,1430.3 1039.9,1381.4 1039.8,1369.8 1124.5,1418.7 					"/>
				</g>
				<line class="st4" x1="1039.8" y1="1250" x2="1213" y2="1350"/>
				<line class="st4" x1="1386.2" y1="1250" x2="1213" y2="1350"/>
				<line class="st4" x1="1213" y1="1350" x2="1213" y2="1550"/>
				<polygon class="st4" points="1213,1150 1039.8,1250 1039.8,1450 1213,1550 1386.2,1450 1386.2,1250 				"/>
				<path class="st5" d="M1094.3,1431.3c0,4-3.3,6.1-7.3,4.7c-4-1.5-7.3-5.9-7.3-10c0-4,3.3-6.1,7.3-4.7
					S1094.3,1427.2,1094.3,1431.3z"/>
				<path class="st6" d="M1073.5,1419.8c0,4-3.3,6.1-7.3,4.7c-4-1.5-7.3-5.9-7.3-10c0-4,3.3-6.1,7.3-4.7
					S1073.5,1415.7,1073.5,1419.8z"/>
			</g>
			<g>
				<polygon class="st2" points="1472,1300 1298.8,1400 1298.8,1600 1472,1700 1645.2,1600 1645.2,1400 				"/>
				<g>
					<polygon class="st3" points="1383.6,1489.5 1298.9,1440.6 1298.8,1429 1383.5,1477.9 					"/>
					<polygon class="st3" points="1383.6,1519.8 1298.9,1470.9 1298.8,1459.3 1383.5,1508.2 					"/>
					<polygon class="st3" points="1383.6,1550 1298.9,1501.1 1298.8,1489.5 1383.5,1538.4 					"/>
					<polygon class="st3" points="1383.6,1580.3 1298.9,1531.4 1298.8,1519.8 1383.5,1568.7 					"/>
				</g>
				<line class="st4" x1="1298.8" y1="1400" x2="1472" y2="1500"/>
				<line class="st4" x1="1645.2" y1="1400" x2="1472" y2="1500"/>
				<line class="st4" x1="1472" y1="1500" x2="1472" y2="1700"/>
				<polygon class="st4" points="1472,1300 1298.8,1400 1298.8,1600 1472,1700 1645.2,1600 1645.2,1400 				"/>
				<path class="st5" d="M1353.3,1581.3c0,4-3.3,6.1-7.3,4.7c-4-1.5-7.3-5.9-7.3-10c0-4,3.3-6.1,7.3-4.7
					S1353.3,1577.2,1353.3,1581.3z"/>
				<path class="st6" d="M1332.5,1569.8c0,4-3.3,6.1-7.3,4.7c-4-1.5-7.3-5.9-7.3-10c0-4,3.3-6.1,7.3-4.7
					S1332.5,1565.7,1332.5,1569.8z"/>
			</g>
		</g>
		<g>
			<g>
				<polygon class="st2" points="693,1150 519.8,1250 519.8,1450 693,1550 866.2,1450 866.2,1250 				"/>
				<g>
					<polygon class="st3" points="604.6,1339.5 519.9,1290.6 519.8,1279 604.5,1327.9 					"/>
					<polygon class="st3" points="604.6,1369.8 519.9,1320.9 519.8,1309.3 604.5,1358.2 					"/>
					<polygon class="st3" points="604.6,1400 519.9,1351.1 519.8,1339.5 604.5,1388.4 					"/>
					<polygon class="st3" points="604.6,1430.3 519.9,1381.4 519.8,1369.8 604.5,1418.7 					"/>
				</g>
				<line class="st4" x1="519.8" y1="1250" x2="693" y2="1350"/>
				<line class="st4" x1="866.2" y1="1250" x2="693" y2="1350"/>
				<line class="st4" x1="693" y1="1350" x2="693" y2="1550"/>
				<polygon class="st4" points="693,1150 519.8,1250 519.8,1450 693,1550 866.2,1450 866.2,1250 				"/>
				<path class="st5" d="M574.3,1431.3c0,4-3.3,6.1-7.3,4.7c-4-1.5-7.3-5.9-7.3-10c0-4,3.3-6.1,7.3-4.7S574.3,1427.2,574.3,1431.3z"
					/>
				<path class="st6" d="M553.5,1419.8c0,4-3.3,6.1-7.3,4.7c-4-1.5-7.3-5.9-7.3-10c0-4,3.3-6.1,7.3-4.7S553.5,1415.7,553.5,1419.8z"
					/>
			</g>
			<g>
				<polygon class="st2" points="953,1300 779.8,1400 779.8,1600 953,1700 1126.2,1600 1126.2,1400 				"/>
				<g>
					<polygon class="st3" points="864.6,1489.5 779.9,1440.6 779.8,1429 864.5,1477.9 					"/>
					<polygon class="st3" points="864.6,1519.8 779.9,1470.9 779.8,1459.3 864.5,1508.2 					"/>
					<polygon class="st3" points="864.6,1550 779.9,1501.1 779.8,1489.5 864.5,1538.4 					"/>
					<polygon class="st3" points="864.6,1580.3 779.9,1531.4 779.8,1519.8 864.5,1568.7 					"/>
				</g>
				<line class="st4" x1="779.8" y1="1400" x2="953" y2="1500"/>
				<line class="st4" x1="1126.2" y1="1400" x2="953" y2="1500"/>
				<line class="st4" x1="953" y1="1500" x2="953" y2="1700"/>
				<polygon class="st4" points="953,1300 779.8,1400 779.8,1600 953,1700 1126.2,1600 1126.2,1400 				"/>
				<path class="st5" d="M834.3,1581.3c0,4-3.3,6.1-7.3,4.7c-4-1.5-7.3-5.9-7.3-10c0-4,3.3-6.1,7.3-4.7S834.3,1577.2,834.3,1581.3z"
					/>
				<path class="st6" d="M813.5,1569.8c0,4-3.3,6.1-7.3,4.7c-4-1.5-7.3-5.9-7.3-10c0-4,3.3-6.1,7.3-4.7S813.5,1565.7,813.5,1569.8z"
					/>
			</g>
			<g>
				<polygon class="st2" points="1212,1450 1038.8,1550 1038.8,1750 1212,1850 1385.2,1750 1385.2,1550 				"/>
				<g>
					<polygon class="st3" points="1123.6,1639.5 1038.9,1590.6 1038.8,1579 1123.5,1627.9 					"/>
					<polygon class="st3" points="1123.6,1669.8 1038.9,1620.9 1038.8,1609.3 1123.5,1658.2 					"/>
					<polygon class="st3" points="1123.6,1700 1038.9,1651.1 1038.8,1639.5 1123.5,1688.4 					"/>
					<polygon class="st3" points="1123.6,1730.3 1038.9,1681.4 1038.8,1669.8 1123.5,1718.7 					"/>
				</g>
				<line class="st4" x1="1038.8" y1="1550" x2="1212" y2="1650"/>
				<line class="st4" x1="1385.2" y1="1550" x2="1212" y2="1650"/>
				<line class="st4" x1="1212" y1="1650" x2="1212" y2="1850"/>
				<polygon class="st4" points="1212,1450 1038.8,1550 1038.8,1750 1212,1850 1385.2,1750 1385.2,1550 				"/>
				<path class="st5" d="M1093.3,1731.3c0,4-3.3,6.1-7.3,4.7c-4-1.5-7.3-5.9-7.3-10c0-4,3.3-6.1,7.3-4.7
					S1093.3,1727.2,1093.3,1731.3z"/>
				<path class="st6" d="M1072.5,1719.8c0,4-3.3,6.1-7.3,4.7c-4-1.5-7.3-5.9-7.3-10c0-4,3.3-6.1,7.3-4.7
					S1072.5,1715.7,1072.5,1719.8z"/>
			</g>
		</g>
		<g>
			<g>
				<polygon class="st2" points="433,1300 259.8,1400 259.8,1600 433,1700 606.2,1600 606.2,1400 				"/>
				<g>
					<polygon class="st3" points="344.6,1489.5 259.9,1440.6 259.8,1429 344.5,1477.9 					"/>
					<polygon class="st3" points="344.6,1519.8 259.9,1470.9 259.8,1459.3 344.5,1508.2 					"/>
					<polygon class="st3" points="344.6,1550 259.9,1501.1 259.8,1489.5 344.5,1538.4 					"/>
					<polygon class="st3" points="344.6,1580.3 259.9,1531.4 259.8,1519.8 344.5,1568.7 					"/>
				</g>
				<line class="st4" x1="259.8" y1="1400" x2="433" y2="1500"/>
				<line class="st4" x1="606.2" y1="1400" x2="433" y2="1500"/>
				<line class="st4" x1="433" y1="1500" x2="433" y2="1700"/>
				<polygon class="st4" points="433,1300 259.8,1400 259.8,1600 433,1700 606.2,1600 606.2,1400 				"/>
				<path class="st5" d="M314.3,1581.3c0,4-3.3,6.1-7.3,4.7c-4-1.5-7.3-5.9-7.3-10c0-4,3.3-6.1,7.3-4.7
					C311,1572.8,314.3,1577.2,314.3,1581.3z"/>
				<path class="st6" d="M293.5,1569.8c0,4-3.3,6.1-7.3,4.7c-4-1.5-7.3-5.9-7.3-10c0-4,3.3-6.1,7.3-4.7
					C290.2,1561.2,293.5,1565.7,293.5,1569.8z"/>
			</g>
			<g>
				<polygon class="st2" points="693,1450 519.8,1550 519.8,1750 693,1850 866.2,1750 866.2,1550 				"/>
				<g>
					<polygon class="st3" points="604.6,1639.5 519.9,1590.6 519.8,1579 604.5,1627.9 					"/>
					<polygon class="st3" points="604.6,1669.8 519.9,1620.9 519.8,1609.3 604.5,1658.2 					"/>
					<polygon class="st3" points="604.6,1700 519.9,1651.1 519.8,1639.5 604.5,1688.4 					"/>
					<polygon class="st3" points="604.6,1730.3 519.9,1681.4 519.8,1669.8 604.5,1718.7 					"/>
				</g>
				<line class="st4" x1="519.8" y1="1550" x2="693" y2="1650"/>
				<line class="st4" x1="866.2" y1="1550" x2="693" y2="1650"/>
				<line class="st4" x1="693" y1="1650" x2="693" y2="1850"/>
				<polygon class="st4" points="693,1450 519.8,1550 519.8,1750 693,1850 866.2,1750 866.2,1550 				"/>
				<path class="st5" d="M574.3,1731.3c0,4-3.3,6.1-7.3,4.7c-4-1.5-7.3-5.9-7.3-10c0-4,3.3-6.1,7.3-4.7S574.3,1727.2,574.3,1731.3z"
					/>
				<path class="st6" d="M553.5,1719.8c0,4-3.3,6.1-7.3,4.7c-4-1.5-7.3-5.9-7.3-10c0-4,3.3-6.1,7.3-4.7S553.5,1715.7,553.5,1719.8z"
					/>
			</g>
			<g>
				<polygon class="st2" points="952,1600 778.8,1700 778.8,1900 952,2000 1125.2,1900 1125.2,1700 				"/>
				<g>
					<polygon class="st3" points="863.6,1789.5 778.9,1740.6 778.8,1729 863.5,1777.9 					"/>
					<polygon class="st3" points="863.6,1819.8 778.9,1770.9 778.8,1759.3 863.5,1808.2 					"/>
					<polygon class="st3" points="863.6,1850 778.9,1801.1 778.8,1789.5 863.5,1838.4 					"/>
					<polygon class="st3" points="863.6,1880.3 778.9,1831.4 778.8,1819.8 863.5,1868.7 					"/>
				</g>
				<line class="st4" x1="778.8" y1="1700" x2="952" y2="1800"/>
				<line class="st4" x1="1125.2" y1="1700" x2="952" y2="1800"/>
				<line class="st4" x1="952" y1="1800" x2="952" y2="2000"/>
				<polygon class="st4" points="952,1600 778.8,1700 778.8,1900 952,2000 1125.2,1900 1125.2,1700 				"/>
				<path class="st5" d="M833.3,1881.3c0,4-3.3,6.1-7.3,4.7c-4-1.5-7.3-5.9-7.3-10c0-4,3.3-6.1,7.3-4.7S833.3,1877.2,833.3,1881.3z"
					/>
				<path class="st6" d="M812.5,1869.8c0,4-3.3,6.1-7.3,4.7c-4-1.5-7.3-5.9-7.3-10c0-4,3.3-6.1,7.3-4.7S812.5,1865.7,812.5,1869.8z"
					/>
			</g>
		</g>
	</g>
</g>
<g id="Layer_3">
	<g>
		<polygon class="st7" points="953,899.8 173.2,1350 173.2,1650 952.6,2100 1732.1,1649.9 1732.1,1350 		"/>
		<line class="st8" x1="173.2" y1="1350" x2="952" y2="1800"/>
		<line class="st8" x1="1732.1" y1="1350" x2="952" y2="1800"/>
		<line class="st8" x1="952" y1="1800" x2="952" y2="2100"/>
		<polygon class="st8" points="953,899.8 173.2,1350 173.2,1650 952,2100 1732.1,1649.9 1732.1,1350 		"/>
	</g>
</g>
<g id="Layer_6">
	<g>
		<path class="st9" d="M1828.2,526.1h-12l-2.4,9.3h-9l12.3-39.1h10.6l12.3,39.1h-9.4L1828.2,526.1z M1826.4,519.2l-1-3.6
			c-1.1-3.9-2.1-8.5-3.2-12.6h-0.2c-0.9,4.1-2,8.7-3.1,12.6l-1,3.6H1826.4z"/>
		<path class="st9" d="M1852.2,537.8v8.7h-8.8v-40.8h7.2l0.6,2.9h0.2c2.3-2.1,5.3-3.7,8.5-3.7c7.2,0,11.6,5.9,11.6,15.1
			c0,10.2-6.1,16.1-12.5,16.1c-2.6,0-5-1.1-7.1-3.1L1852.2,537.8z M1856.9,529c3.1,0,5.5-2.6,5.5-8.8c0-5.3-1.6-8-5.2-8
			c-1.8,0-3.4,0.8-5.1,2.7V527C1853.7,528.5,1855.4,529,1856.9,529z"/>
		<path class="st9" d="M1886.6,537.8v8.7h-8.8v-40.8h7.2l0.6,2.9h0.2c2.3-2.1,5.3-3.7,8.5-3.7c7.2,0,11.6,5.9,11.6,15.1
			c0,10.2-6.1,16.1-12.5,16.1c-2.6,0-5-1.1-7.1-3.1L1886.6,537.8z M1891.3,529c3.1,0,5.5-2.6,5.5-8.8c0-5.3-1.6-8-5.2-8
			c-1.8,0-3.4,0.8-5.1,2.7V527C1888.1,528.5,1889.8,529,1891.3,529z"/>
		<path class="st9" d="M1912.1,493.4h8.8v33.2c0,1.9,0.8,2.5,1.6,2.5c0.4,0,0.6,0,1.1-0.1l1.1,6.5c-1,0.4-2.5,0.7-4.4,0.7
			c-6.1,0-8.1-4-8.1-10L1912.1,493.4L1912.1,493.4z"/>
		<path class="st9" d="M1928.6,496.7c0-2.7,2.2-4.6,5.1-4.6c3,0,5.1,1.9,5.1,4.6s-2.1,4.6-5.1,4.6
			C1930.7,501.3,1928.6,499.4,1928.6,496.7z M1929.3,505.7h8.8v29.8h-8.8V505.7z"/>
		<path class="st9" d="M1959.6,505c3.7,0,6.7,1.4,8.7,3.4l-4,5.5c-1.4-1.2-2.8-1.7-4.1-1.7c-4.3,0-7,3.3-7,8.5s2.8,8.5,6.7,8.5
			c2.2,0,3.9-1,5.3-2.2l3.5,5.6c-2.9,2.5-6.7,3.7-9.9,3.7c-8.3,0-14.7-5.7-14.7-15.6S1951.4,505,1959.6,505z"/>
		<path class="st9" d="M1988.9,516.3c-0.2-2.6-1.5-4.3-4.7-4.3c-2.5,0-5,1-7.9,2.7l-3.1-5.8c3.8-2.3,8-3.9,12.7-3.9
			c7.6,0,11.8,4.3,11.8,13.4v17h-7.2l-0.7-3.1h-0.2c-2.5,2.2-5.3,3.8-8.7,3.8c-5.4,0-8.8-4-8.8-9
			C1972.2,520.9,1977.2,517.5,1988.9,516.3z M1984,529.3c2,0,3.4-1,4.9-2.5v-5.2c-6.3,0.8-8.3,2.6-8.3,4.9
			C1980.6,528.4,1981.9,529.3,1984,529.3z"/>
		<path class="st9" d="M2006.5,512.6h-4.1V506l4.6-0.4l1-7.9h7.3v7.9h7.1v6.9h-7.1v11.9c0,3.4,1.5,4.7,3.8,4.7c1,0,2-0.3,2.8-0.6
			l1.4,6.4c-1.6,0.5-3.7,1.1-6.6,1.1c-7.4,0-10.3-4.6-10.3-11.5L2006.5,512.6L2006.5,512.6z"/>
		<path class="st9" d="M2027.6,496.7c0-2.7,2.2-4.6,5.1-4.6c3,0,5.1,1.9,5.1,4.6s-2.1,4.6-5.1,4.6
			C2029.7,501.3,2027.6,499.4,2027.6,496.7z M2028.3,505.7h8.8v29.8h-8.8V505.7z"/>
		<path class="st9" d="M2057.6,505c7.5,0,14.5,5.7,14.5,15.6s-7,15.6-14.5,15.6c-7.6,0-14.5-5.7-14.5-15.6S2050.1,505,2057.6,505z
			 M2057.6,529c3.6,0,5.5-3.3,5.5-8.5s-1.9-8.5-5.5-8.5c-3.7,0-5.5,3.3-5.5,8.5S2054,529,2057.6,529z"/>
		<path class="st9" d="M2078.1,505.7h7.2l0.6,3.8h0.2c2.5-2.4,5.5-4.5,9.5-4.5c6.5,0,9.2,4.6,9.2,12v18.5h-8.8v-17.3
			c0-4.3-1.1-5.6-3.7-5.6c-2.2,0-3.6,1-5.5,2.9v20.1h-8.8v-29.9H2078.1z"/>
		<path class="st9" d="M2113.8,526.5c2.7,2,5.2,3.1,7.7,3.1c2.6,0,3.8-1,3.8-2.5c0-2-3-2.9-6.1-4.1c-3.6-1.4-7.9-3.8-7.9-8.8
			c0-5.5,4.5-9.3,11.4-9.3c4.6,0,7.9,1.9,10.5,3.8l-4,5.3c-2.2-1.6-4.2-2.5-6.3-2.5c-2.3,0-3.4,0.8-3.4,2.3c0,1.9,2.8,2.6,5.8,3.8
			c3.8,1.4,8,3.5,8,8.9s-4.3,9.6-12.2,9.6c-3.9,0-8.4-1.7-11.4-4.1L2113.8,526.5z"/>
	</g>
	<g>
		<path class="st10" d="M1826.6,1604.4c4.9,0,8.9,2.4,11.6,5.1l-4.9,5.5c-2-1.8-3.8-2.9-6.6-2.9c-5.5,0-9.7,4.7-9.7,12.6
			c0,8,3.8,12.7,9.5,12.7c3.2,0,5.5-1.4,7.4-3.5l4.9,5.3c-3.2,3.8-7.6,5.8-12.4,5.8c-10.1,0-18.4-6.9-18.4-20
			C1807.9,1611.9,1816.5,1604.4,1826.6,1604.4z"/>
		<path class="st10" d="M1843.9,1602.1h8.8v33.2c0,1.9,0.8,2.5,1.6,2.5c0.4,0,0.6,0,1.1-0.1l1.1,6.5c-1,0.4-2.5,0.7-4.4,0.7
			c-6.1,0-8.1-4-8.1-10L1843.9,1602.1L1843.9,1602.1z"/>
		<path class="st10" d="M1860.8,1614.4h8.8v17.3c0,4.3,1.1,5.6,3.7,5.6c2.2,0,3.5-1,5.3-3.3v-19.7h8.8v29.8h-7.2l-0.7-4.1h-0.2
			c-2.5,3-5.3,4.9-9.4,4.9c-6.5,0-9.2-4.6-9.2-12L1860.8,1614.4L1860.8,1614.4z"/>
		<path class="st10" d="M1896.5,1635.3c2.7,2,5.2,3.1,7.7,3.1c2.6,0,3.8-1,3.8-2.5c0-2-3-2.9-6.1-4.1c-3.6-1.4-7.9-3.8-7.9-8.8
			c0-5.5,4.5-9.3,11.4-9.3c4.6,0,7.9,1.9,10.5,3.8l-4,5.3c-2.2-1.6-4.2-2.5-6.3-2.5c-2.3,0-3.4,0.8-3.4,2.3c0,1.9,2.8,2.6,5.8,3.8
			c3.8,1.4,8,3.5,8,8.9s-4.3,9.6-12.2,9.6c-3.9,0-8.4-1.7-11.4-4.1L1896.5,1635.3z"/>
		<path class="st10" d="M1922.9,1621.3h-4.1v-6.5l4.6-0.4l1-7.9h7.3v7.9h7.1v6.9h-7.1v11.9c0,3.4,1.5,4.7,3.8,4.7c1,0,2-0.3,2.8-0.6
			l1.4,6.4c-1.6,0.5-3.7,1.1-6.6,1.1c-7.4,0-10.3-4.6-10.3-11.5L1922.9,1621.3L1922.9,1621.3z"/>
		<path class="st10" d="M1956.4,1613.7c8.5,0,12.7,6.2,12.7,14.3c0,1.6-0.2,3-0.4,3.7h-17.8c0.8,4.5,3.8,6.5,7.7,6.5
			c2.2,0,4.3-0.7,6.4-2l2.9,5.3c-3.1,2.1-7,3.4-10.6,3.4c-8.5,0-15.1-5.8-15.1-15.6C1942.4,1619.7,1949.3,1613.7,1956.4,1613.7z
			 M1961.6,1626.3c0-3.4-1.4-5.8-5-5.8c-2.8,0-5.2,1.9-5.8,5.8H1961.6z"/>
		<path class="st10" d="M1975.2,1614.4h7.2l0.6,5.2h0.2c2.2-4,5.4-5.9,8.5-5.9c1.7,0,2.7,0.2,3.5,0.6l-1.4,7.6
			c-1.1-0.3-2-0.5-3.2-0.5c-2.2,0-5,1.4-6.5,5.5v17.3h-8.8L1975.2,1614.4L1975.2,1614.4z"/>
		<path class="st10" d="M2027.2,1625.1c-0.2-2.6-1.5-4.3-4.7-4.3c-2.5,0-5,1-7.9,2.7l-3.1-5.8c3.8-2.3,8-3.9,12.7-3.9
			c7.6,0,11.8,4.3,11.8,13.4v17h-7.2l-0.7-3.1h-0.2c-2.5,2.2-5.3,3.8-8.7,3.8c-5.4,0-8.8-4-8.8-9
			C2010.5,1629.7,2015.4,1626.3,2027.2,1625.1z M2022.3,1638.1c2,0,3.4-1,4.9-2.5v-5.2c-6.3,0.8-8.3,2.6-8.3,4.9
			C2018.9,1637.2,2020.2,1638.1,2022.3,1638.1z"/>
		<path class="st10" d="M2043.6,1614.4h7.2l0.6,3.8h0.2c2.5-2.4,5.5-4.5,9.5-4.5c6.5,0,9.2,4.6,9.2,12v18.5h-8.8v-17.3
			c0-4.3-1.1-5.6-3.7-5.6c-2.2,0-3.6,1-5.5,2.9v20.1h-8.8L2043.6,1614.4L2043.6,1614.4z"/>
		<path class="st10" d="M2088.7,1613.7c3.3,0,5.3,1.2,7.3,3.1l-0.4-4.6v-10.1h8.8v42.1h-7.2l-0.6-2.9h-0.2c-2.1,2.1-5,3.7-7.9,3.7
			c-7.4,0-12.2-5.9-12.2-15.6S2082.4,1613.7,2088.7,1613.7z M2090.8,1637.7c1.9,0,3.4-0.7,4.9-2.7v-12.2c-1.6-1.4-3.3-1.9-4.9-1.9
			c-2.8,0-5.3,2.6-5.3,8.3C2085.4,1635.1,2087.4,1637.7,2090.8,1637.7z"/>
		<path class="st10" d="M1809.8,1677.1h8.9v39.1h-8.9V1677.1z"/>
		<path class="st10" d="M1827.1,1686.4h7.2l0.6,3.8h0.2c2.5-2.4,5.5-4.5,9.5-4.5c6.5,0,9.2,4.6,9.2,12v18.5h-8.8v-17.3
			c0-4.3-1.1-5.6-3.7-5.6c-2.2,0-3.6,1-5.5,2.9v20.1h-8.8v-29.9H1827.1z"/>
		<path class="st10" d="M1878.2,1681c-1-0.4-2.1-0.6-3.1-0.6c-2.2,0-3.4,1.2-3.4,4.3v1.8h5.3v6.9h-5.3v22.9h-8.8v-22.9h-4v-6.5
			l4-0.3v-1.6c0-6.3,2.9-11.5,11-11.5c2.5,0,4.6,0.6,5.9,1.1L1878.2,1681z"/>
		<path class="st10" d="M1881.9,1686.4h7.2l0.6,5.2h0.2c2.2-4,5.4-5.9,8.5-5.9c1.7,0,2.7,0.2,3.5,0.6l-1.4,7.6
			c-1.1-0.3-2-0.5-3.2-0.5c-2.2,0-5,1.4-6.5,5.5v17.3h-8.8L1881.9,1686.4L1881.9,1686.4z"/>
		<path class="st10" d="M1919.7,1697.1c-0.2-2.6-1.5-4.3-4.7-4.3c-2.5,0-5,1-7.9,2.7l-3.1-5.8c3.8-2.3,8-3.9,12.7-3.9
			c7.6,0,11.8,4.3,11.8,13.4v17h-7.2l-0.7-3.1h-0.2c-2.5,2.2-5.3,3.8-8.7,3.8c-5.4,0-8.8-4-8.8-9
			C1902.9,1701.7,1907.9,1698.3,1919.7,1697.1z M1914.8,1710.1c2,0,3.4-1,4.9-2.5v-5.2c-6.3,0.8-8.3,2.6-8.3,4.9
			C1911.3,1709.2,1912.7,1710.1,1914.8,1710.1z"/>
		<path class="st10" d="M1937.4,1707.3c2.7,2,5.2,3.1,7.7,3.1c2.6,0,3.8-1,3.8-2.5c0-2-3-2.9-6.1-4.1c-3.6-1.4-7.9-3.8-7.9-8.8
			c0-5.5,4.5-9.3,11.4-9.3c4.6,0,7.9,1.9,10.5,3.8l-4,5.3c-2.2-1.6-4.2-2.5-6.3-2.5c-2.3,0-3.4,0.8-3.4,2.3c0,1.9,2.8,2.6,5.8,3.8
			c3.8,1.4,8,3.5,8,8.9s-4.3,9.6-12.2,9.6c-3.9,0-8.4-1.7-11.4-4.1L1937.4,1707.3z"/>
		<path class="st10" d="M1963.8,1693.3h-4.1v-6.5l4.6-0.4l1-7.9h7.3v7.9h7.1v6.9h-7.1v11.9c0,3.4,1.5,4.7,3.8,4.7c1,0,2-0.3,2.8-0.6
			l1.4,6.4c-1.6,0.5-3.7,1.1-6.6,1.1c-7.4,0-10.3-4.6-10.3-11.5L1963.8,1693.3L1963.8,1693.3z"/>
		<path class="st10" d="M1985.6,1686.4h7.2l0.6,5.2h0.2c2.2-4,5.4-5.9,8.5-5.9c1.7,0,2.7,0.2,3.5,0.6l-1.4,7.6
			c-1.1-0.3-2-0.5-3.2-0.5c-2.2,0-5,1.4-6.5,5.5v17.3h-8.8L1985.6,1686.4L1985.6,1686.4z"/>
		<path class="st10" d="M2009.2,1686.4h8.8v17.3c0,4.3,1.1,5.6,3.7,5.6c2.2,0,3.5-1,5.3-3.3v-19.7h8.8v29.8h-7.2l-0.7-4.1h-0.2
			c-2.5,3-5.3,4.9-9.4,4.9c-6.5,0-9.2-4.6-9.2-12L2009.2,1686.4L2009.2,1686.4z"/>
		<path class="st10" d="M2057.3,1685.7c3.7,0,6.7,1.4,8.7,3.4l-4,5.5c-1.4-1.2-2.8-1.7-4.1-1.7c-4.3,0-7,3.3-7,8.5s2.8,8.5,6.7,8.5
			c2.2,0,3.9-1,5.3-2.2l3.5,5.6c-2.9,2.5-6.7,3.7-9.9,3.7c-8.3,0-14.7-5.7-14.7-15.6S2049.1,1685.7,2057.3,1685.7z"/>
		<path class="st10" d="M2072.8,1693.3h-4.1v-6.5l4.6-0.4l1-7.9h7.3v7.9h7.1v6.9h-7.1v11.9c0,3.4,1.5,4.7,3.8,4.7c1,0,2-0.3,2.8-0.6
			l1.4,6.4c-1.6,0.5-3.7,1.1-6.6,1.1c-7.4,0-10.3-4.6-10.3-11.5v-12H2072.8z"/>
		<path class="st10" d="M2094.3,1686.4h8.8v17.3c0,4.3,1.1,5.6,3.7,5.6c2.2,0,3.5-1,5.3-3.3v-19.7h8.8v29.8h-7.2l-0.7-4.1h-0.2
			c-2.5,3-5.3,4.9-9.4,4.9c-6.5,0-9.2-4.6-9.2-12L2094.3,1686.4L2094.3,1686.4z"/>
		<path class="st10" d="M2128.7,1686.4h7.2l0.6,5.2h0.2c2.2-4,5.4-5.9,8.5-5.9c1.7,0,2.7,0.2,3.5,0.6l-1.4,7.6
			c-1.1-0.3-2-0.5-3.2-0.5c-2.2,0-5,1.4-6.5,5.5v17.3h-8.8v-29.8H2128.7z"/>
		<path class="st10" d="M2164.2,1685.7c8.5,0,12.7,6.2,12.7,14.3c0,1.6-0.2,3-0.4,3.7h-17.8c0.8,4.5,3.8,6.5,7.7,6.5
			c2.2,0,4.3-0.7,6.4-2l2.9,5.3c-3.1,2.1-7,3.4-10.6,3.4c-8.5,0-15.1-5.8-15.1-15.6C2150.2,1691.7,2157.1,1685.7,2164.2,1685.7z
			 M2169.4,1698.3c0-3.4-1.4-5.8-5-5.8c-2.8,0-5.2,1.9-5.8,5.8H2169.4z"/>
		<path class="st10" d="M1809.8,1749.1h9.4l6.5,17.6l2.3,6.8h0.2l2.3-6.8l6.4-17.6h9.4v39.1h-8.3v-14.3c0-3.8,0.7-9.5,1.1-13.3h-0.2
			l-3.2,9.1l-6.1,15.2h-3.5l-6-15.2l-3.1-9.1h-0.2c0.4,3.8,1.1,9.5,1.1,13.3v14.3h-8.2L1809.8,1749.1L1809.8,1749.1z"/>
		<path class="st10" d="M1870.4,1769.1c-0.2-2.6-1.5-4.3-4.7-4.3c-2.5,0-5,1-7.9,2.7l-3.1-5.8c3.8-2.3,8-3.9,12.7-3.9
			c7.6,0,11.8,4.3,11.8,13.4v17h-7.2l-0.7-3.1h-0.2c-2.5,2.2-5.3,3.8-8.7,3.8c-5.4,0-8.8-4-8.8-9
			C1853.7,1773.7,1858.7,1770.3,1870.4,1769.1z M1865.5,1782.1c2,0,3.4-1,4.9-2.5v-5.2c-6.3,0.8-8.3,2.6-8.3,4.9
			C1862.1,1781.2,1863.4,1782.1,1865.5,1782.1z"/>
		<path class="st10" d="M1886.8,1758.4h7.2l0.6,3.8h0.2c2.5-2.4,5.5-4.5,9.5-4.5c6.5,0,9.2,4.6,9.2,12v18.5h-8.8v-17.3
			c0-4.3-1.1-5.6-3.7-5.6c-2.2,0-3.6,1-5.5,2.9v20.1h-8.8v-29.9H1886.8z"/>
		<path class="st10" d="M1936.8,1769.1c-0.2-2.6-1.5-4.3-4.7-4.3c-2.5,0-5,1-7.9,2.7l-3.1-5.8c3.8-2.3,8-3.9,12.7-3.9
			c7.6,0,11.8,4.3,11.8,13.4v17h-7.2l-0.7-3.1h-0.2c-2.5,2.2-5.3,3.8-8.7,3.8c-5.4,0-8.8-4-8.8-9
			C1920,1773.7,1925,1770.3,1936.8,1769.1z M1931.9,1782.1c2,0,3.4-1,4.9-2.5v-5.2c-6.3,0.8-8.3,2.6-8.3,4.9
			C1928.4,1781.2,1929.8,1782.1,1931.9,1782.1z"/>
		<path class="st10" d="M1955.6,1787.3v-0.2c-1.6-1-2.8-2.6-2.8-5c0-2.2,1.4-4.3,3.4-5.6v-0.2c-2.1-1.4-4-4.3-4-7.7
			c0-7.1,5.9-10.7,12.3-10.7c1.7,0,3.3,0.2,4.6,0.7h10.9v6.4h-4.7c0.5,0.9,1,2.3,1,3.9c0,6.8-5.2,10-11.7,10c-1.1,0-2.3-0.2-3.6-0.6
			c-0.8,0.7-1.1,1.2-1.1,2.2c0,1.5,1.2,2.2,4.5,2.2h4.8c7.3,0,11.3,2.2,11.3,7.6c0,6.2-6.4,10.7-16.6,10.7c-7,0-12.5-2.3-12.5-7.6
			C1951.3,1790.8,1952.8,1788.9,1955.6,1787.3z M1965.2,1795.3c4,0,6.8-1.6,6.8-3.7c0-1.9-1.6-2.3-4.6-2.3h-3.1
			c-2,0-3.2-0.1-4.2-0.4c-1.1,1-1.6,1.9-1.6,2.9C1958.6,1794.1,1961.2,1795.3,1965.2,1795.3z M1968.5,1768.5c0-3.1-1.7-4.8-4.1-4.8
			s-4.1,1.6-4.1,4.8c0,3.3,1.7,5,4.1,5S1968.5,1771.8,1968.5,1768.5z"/>
		<path class="st10" d="M1996.4,1757.7c8.5,0,12.7,6.2,12.7,14.3c0,1.6-0.2,3-0.4,3.7h-17.8c0.8,4.5,3.8,6.5,7.7,6.5
			c2.2,0,4.3-0.7,6.4-2l2.9,5.3c-3.1,2.1-7,3.4-10.6,3.4c-8.5,0-15.1-5.8-15.1-15.6C1982.4,1763.7,1989.3,1757.7,1996.4,1757.7z
			 M2001.6,1770.3c0-3.4-1.4-5.8-5-5.8c-2.8,0-5.2,1.9-5.8,5.8H2001.6z"/>
		<path class="st10" d="M2015.2,1758.4h7.2l0.6,3.8h0.2c2.5-2.5,5.1-4.6,9-4.6c4.2,0,6.7,1.8,8.2,5c2.6-2.7,5.4-5,9.4-5
			c6.4,0,9.3,4.6,9.3,12v18.5h-8.8v-17.3c0-4.3-1.1-5.6-3.7-5.6c-1.5,0-3.2,1-5.1,2.9v20.1h-8.8v-17.3c0-4.3-1.1-5.6-3.7-5.6
			c-1.4,0-3.2,1-5,2.9v20.1h-8.8L2015.2,1758.4L2015.2,1758.4z"/>
		<path class="st10" d="M2078.9,1757.7c8.5,0,12.7,6.2,12.7,14.3c0,1.6-0.2,3-0.4,3.7h-17.8c0.8,4.5,3.8,6.5,7.7,6.5
			c2.2,0,4.3-0.7,6.4-2l2.9,5.3c-3.1,2.1-7,3.4-10.6,3.4c-8.5,0-15.1-5.8-15.1-15.6C2064.9,1763.7,2071.8,1757.7,2078.9,1757.7z
			 M2084.1,1770.3c0-3.4-1.4-5.8-5-5.8c-2.8,0-5.2,1.9-5.8,5.8H2084.1z"/>
		<path class="st10" d="M2097.7,1758.4h7.2l0.6,3.8h0.2c2.5-2.4,5.5-4.5,9.5-4.5c6.5,0,9.2,4.6,9.2,12v18.5h-8.8v-17.3
			c0-4.3-1.1-5.6-3.7-5.6c-2.2,0-3.6,1-5.5,2.9v20.1h-8.8v-29.9H2097.7z"/>
		<path class="st10" d="M2133.2,1765.3h-4.1v-6.5l4.6-0.4l1-7.9h7.3v7.9h7.1v6.9h-7.1v11.9c0,3.4,1.5,4.7,3.8,4.7c1,0,2-0.3,2.8-0.6
			l1.4,6.4c-1.6,0.5-3.7,1.1-6.6,1.1c-7.4,0-10.3-4.6-10.3-11.5v-12H2133.2z"/>
	</g>
	<line class="st11" x1="1723.2" y1="900.4" x2="2407.1" y2="900.4"/>
	<line class="st11" x1="1056.4" y1="142.4" x2="2407.1" y2="142.4"/>
	<line class="st11" x1="1723.2" y1="1300" x2="2407.1" y2="1300"/>
	<line class="st11" x1="1018" y1="2100" x2="2407.1" y2="2100"/>
	<g>
		<path class="st9" d="M191.4,138.6c7.5,0,13.4,3.6,17.2,7.8l-4.5,5.1c-3.4-3.6-7.4-5.9-12.6-5.9c-12,0-20,9.8-20,25.4
			c0,15.8,7.6,25.8,19.6,25.8c6,0,10.4-2.5,14.4-7l4.5,4.9c-4.9,5.8-11.1,9.1-19.1,9.1c-15.8,0-27.6-12.1-27.6-32.6
			C163.3,151,175.3,138.6,191.4,138.6z"/>
		<path class="st9" d="M239,155c11.4,0,21.6,8.9,21.6,24.6c0,15.5-10.2,24.4-21.6,24.4c-11.4,0-21.6-8.9-21.6-24.4
			C217.4,163.9,227.5,155,239,155z M239,197.4c8.1,0,13.4-7.2,13.4-17.9c0-10.8-5.4-18-13.4-18s-13.4,7.3-13.4,18
			C225.5,190.2,231,197.4,239,197.4z"/>
		<path class="st9" d="M272.9,156.1h6.5l0.7,6.7h0.3c4.4-4.4,9.2-7.9,15.6-7.9c9.8,0,14.2,6.3,14.2,18.2v29.6h-7.9v-28.5
			c0-8.7-2.7-12.5-8.8-12.5c-4.8,0-8.1,2.5-12.8,7.2v33.8h-7.9L272.9,156.1L272.9,156.1z"/>
		<path class="st9" d="M342.3,155c5.4,0,8.9,2,13.1,5.4l-0.4-8v-18h8v68.3h-6.5l-0.7-5.5h-0.3c-3.6,3.6-8.6,6.6-14.1,6.6
			c-11.7,0-19.3-8.8-19.3-24.4C322,164.4,331.6,155,342.3,155z M343,197.3c4.3,0,8.1-2.1,11.9-6.4v-24.4c-3.9-3.6-7.5-4.9-11.3-4.9
			c-7.5,0-13.4,7.2-13.4,17.9C330.2,190.6,334.9,197.3,343,197.3z"/>
		<path class="st9" d="M378,156.1h8v28.5c0,8.7,2.6,12.5,8.7,12.5c4.8,0,8.2-2.4,12.6-7.9v-33.1h7.9v46.7h-6.5l-0.7-7.3h-0.3
			c-4.3,5.1-8.9,8.4-15.4,8.4c-9.9,0-14.3-6.3-14.3-18.2L378,156.1L378,156.1z"/>
		<path class="st9" d="M449.9,155c6.1,0,10.5,2.6,13.6,5.6l-3.9,5.1c-2.8-2.4-5.7-4.1-9.4-4.1c-8.4,0-14.6,7.3-14.6,18
			s5.9,17.9,14.4,17.9c4.4,0,8.2-2.2,10.9-4.7l3.6,5.2c-4.2,3.7-9.6,6-15.2,6c-12.4,0-21.9-8.9-21.9-24.4
			C427.4,163.9,437.9,155,449.9,155z"/>
		<path class="st9" d="M476,162.5h-6.9v-6l7.3-0.5l1-13.1h6.6V156h12.6v6.4H484v25.9c0,5.8,1.8,9,7.2,9c1.6,0,3.7-0.7,5.3-1.2l1.5,6
			c-2.6,0.9-5.8,1.7-8.6,1.7c-10,0-13.3-6.3-13.3-15.6v-25.7H476z"/>
		<path class="st9" d="M542.1,202.8L527,176.2h-11.3v26.6h-8.1v-63h19.8c12.8,0,22,4.6,22,17.7c0,9.8-5.6,15.6-14.1,17.9l16,27.5
			L542.1,202.8L542.1,202.8z M515.6,169.7h10.6c9.8,0,15.2-4,15.2-12.2c0-8.3-5.4-11.2-15.2-11.2h-10.6V169.7z"/>
		<path class="st9" d="M163.1,241.4c1.7,1.5,4,2.6,6.1,2.6c2.3,0,3.5-0.9,3.5-2.4c0-1.6-1.4-2.1-3.6-3l-3.2-1.4c-2.6-1-5-3.2-5-6.8
			c0-4.1,3.7-7.4,8.8-7.4c2.8,0,5.9,1.1,8,3.3l-2.8,3.5c-1.6-1.3-3.2-2-5.2-2c-1.9,0-3.2,0.8-3.2,2.2c0,1.5,1.6,2.1,3.8,2.9l3.2,1.3
			c3,1.2,4.9,3.2,4.9,6.7c0,4.1-3.4,7.7-9.3,7.7c-3.2,0-6.6-1.2-9.2-3.6L163.1,241.4z"/>
		<path class="st9" d="M186.2,239.6l-7.4-16h6l2.2,5.7c0.6,1.9,1.3,3.6,2,5.5h0.2c0.7-1.9,1.4-3.6,2.1-5.5l2.2-5.7h5.9l-7.5,16v8.8
			h-5.6L186.2,239.6L186.2,239.6z"/>
		<path class="st9" d="M202.8,241.4c1.7,1.5,4,2.6,6.1,2.6c2.3,0,3.5-0.9,3.5-2.4c0-1.6-1.4-2.1-3.6-3l-3.2-1.4c-2.6-1-5-3.2-5-6.8
			c0-4.1,3.7-7.4,8.8-7.4c2.8,0,5.9,1.1,8,3.3l-2.8,3.5c-1.6-1.3-3.2-2-5.2-2c-1.9,0-3.2,0.8-3.2,2.2c0,1.5,1.6,2.1,3.8,2.9l3.2,1.3
			c3,1.2,4.9,3.2,4.9,6.7c0,4.1-3.4,7.7-9.3,7.7c-3.2,0-6.6-1.2-9.2-3.6L202.8,241.4z"/>
		<path class="st9" d="M226.3,228.3h-6.8v-4.7h19.2v4.7h-6.8v20.1h-5.6L226.3,228.3L226.3,228.3z"/>
		<path class="st9" d="M242.5,223.6H258v4.7h-9.9v5h8.4v4.7h-8.4v5.7h10.3v4.7h-15.9V223.6z"/>
		<path class="st9" d="M263.3,223.6h5.9l4.1,11.1l1.5,4.3h0.2l1.5-4.3l4-11.1h5.9v24.8h-5.2v-9.1c0-2.4,0.5-6,0.7-8.4h-0.2l-2,5.7
			l-3.8,9.6h-2.2l-3.8-9.6l-2-5.7h-0.2c0.3,2.4,0.7,6,0.7,8.4v9.1h-5.2v-24.8H263.3z"/>
		<path class="st9" d="M311.7,242.5h-7.6l-1.5,5.9h-5.7l7.8-24.8h6.7l7.8,24.8h-5.9L311.7,242.5z M310.6,238.1l-0.6-2.3
			c-0.7-2.5-1.3-5.4-2-8h-0.2c-0.6,2.6-1.3,5.5-1.9,8l-0.6,2.3H310.6z"/>
		<path class="st9" d="M335.2,248.4l-4.8-8.9h-3v8.9h-5.6v-24.8h8.9c5.2,0,9.6,1.8,9.6,7.7c0,3.6-1.8,6-4.4,7.1l5.6,9.9h-6.3V248.4z
			 M327.4,235h2.8c2.9,0,4.5-1.3,4.5-3.7s-1.6-3.3-4.5-3.3h-2.8V235z"/>
		<path class="st9" d="M355.8,223.1c3.1,0,5.7,1.5,7.3,3.2l-3.1,3.5c-1.3-1.1-2.4-1.9-4.2-1.9c-3.5,0-6.2,3-6.2,8
			c0,5.1,2.4,8.1,6,8.1c2.1,0,3.5-0.9,4.7-2.2l3.1,3.4c-2.1,2.4-4.8,3.6-7.9,3.6c-6.4,0-11.7-4.4-11.7-12.7
			C344,227.9,349.4,223.1,355.8,223.1z"/>
		<path class="st9" d="M367.2,223.6h5.6v9.5h8.5v-9.5h5.6v24.8h-5.6V238h-8.5v10.3h-5.6V223.6z"/>
		<path class="st9" d="M392.7,223.6h5.6v24.8h-5.6V223.6z"/>
		<path class="st9" d="M409,228.3h-6.8v-4.7h19.2v4.7h-6.8v20.1H409V228.3z"/>
		<path class="st9" d="M425.2,223.6h15.5v4.7h-9.9v5h8.4v4.7h-8.4v5.7h10.3v4.7h-15.9V223.6z"/>
		<path class="st9" d="M456.6,223.1c3.1,0,5.7,1.5,7.3,3.2l-3.1,3.5c-1.3-1.1-2.4-1.9-4.2-1.9c-3.5,0-6.2,3-6.2,8
			c0,5.1,2.4,8.1,6,8.1c2.1,0,3.5-0.9,4.7-2.2l3.1,3.4c-2.1,2.4-4.8,3.6-7.9,3.6c-6.4,0-11.7-4.4-11.7-12.7
			C444.8,227.9,450.2,223.1,456.6,223.1z"/>
		<path class="st9" d="M472.4,228.3h-6.8v-4.7h19.2v4.7H478v20.1h-5.6V228.3z"/>
		<path class="st9" d="M488.5,223.6h5.6v13.9c0,4.9,1.5,6.5,4.3,6.5s4.4-1.7,4.4-6.5v-13.9h5.4v13.3c0,8.3-3.4,11.9-9.8,11.9
			s-9.9-3.6-9.9-11.9V223.6z"/>
		<path class="st9" d="M527.2,248.4l-4.7-8.9h-3v8.9h-5.6v-24.8h8.9c5.2,0,9.6,1.8,9.6,7.7c0,3.6-1.8,6-4.4,7.1l5.6,9.9h-6.4V248.4z
			 M519.5,235h2.8c2.9,0,4.5-1.3,4.5-3.7s-1.6-3.3-4.5-3.3h-2.8V235z"/>
		<path class="st9" d="M537.2,223.6h15.5v4.7h-9.9v5h8.4v4.7h-8.4v5.7h10.3v4.7h-15.9L537.2,223.6L537.2,223.6z"/>
	</g>
</g>
<g id="Layer_3_copy">
	<g class="st12">
		<polygon class="st13" points="953,499.8 173.2,950 173.2,1250 952,1700 1732.1,1249.9 1732.1,950 		"/>
		<polygon class="st14" points="953,499.8 173.2,950 173.2,1250 952.6,1700 1732.1,1249.9 1732.1,950 		"/>
		<line class="st15" x1="173.2" y1="950" x2="952" y2="1400"/>
		<line class="st15" x1="1732.1" y1="950" x2="952" y2="1400"/>
		<line class="st15" x1="952" y1="1400" x2="952" y2="1700"/>
	</g>
</g>
<g id="Layer_5">
	<g class="st12">
		<g>
			<polygon class="st16" points="952,100.4 606.4,300.1 606.4,600.3 952,800 1298.6,599.5 1299.6,299.5 			"/>
			<polygon class="st17" points="952,100.4 606.4,300.1 606.4,600.3 952.6,800 1298.6,599.5 1299.6,299.5 			"/>
			<line class="st17" x1="606.4" y1="300.1" x2="952" y2="500"/>
			<line class="st17" x1="1299.6" y1="299.5" x2="952" y2="500"/>
			<line class="st17" x1="952" y1="500" x2="952" y2="800"/>
		</g>
		<g>
			<polygon class="st18" points="1385.4,350.8 1039.8,550.5 1039.8,850.8 1385.4,1050.4 1732.1,850 1733.1,549.9 			"/>
			<polygon class="st19" points="1385.4,350.8 1039.8,550.5 1039.8,850.8 1386,1050.4 1732.1,850 1733.1,549.9 			"/>
			<line class="st19" x1="1039.8" y1="550.5" x2="1385.4" y2="750.4"/>
			<line class="st19" x1="1733.1" y1="549.9" x2="1385.4" y2="750.4"/>
			<line class="st19" x1="1385.4" y1="750.4" x2="1385.4" y2="1050.4"/>
		</g>
		<g>
			<polygon class="st20" points="518.4,350.8 172.8,550.5 172.8,850.8 518.4,1050.4 865.1,850 866.1,549.9 			"/>
			<polygon class="st21" points="518.4,350.8 172.8,550.5 172.8,850.8 519,1050.4 865.1,850 866.1,549.9 			"/>
			<line class="st21" x1="172.8" y1="550.5" x2="518.4" y2="750.4"/>
			<line class="st21" x1="866.1" y1="549.9" x2="518.4" y2="750.4"/>
			<line class="st21" x1="518.4" y1="750.4" x2="518.4" y2="1050.4"/>
		</g>
		<g>
			<polygon class="st22" points="952,600.4 606.4,800.1 606.4,1100.3 952,1300 1298.6,1099.5 1299.6,799.5 			"/>
			<polygon class="st23" points="952,600.4 606.4,800.1 606.4,1100.3 952.6,1300 1298.6,1099.5 1299.6,799.5 			"/>
			<line class="st23" x1="606.4" y1="800.1" x2="952" y2="1000"/>
			<line class="st23" x1="1299.6" y1="799.5" x2="952" y2="1000"/>
			<line class="st23" x1="952" y1="1000" x2="952" y2="1300"/>
		</g>
	</g>
	<g>
		<g>
			<g>
				<path class="st24" d="M385,544c7.3,6.5,11.5,14.3,11.6,22.6c0,6.7-2.7,13.1-7.6,18.8l-13,8.6c-6.2,4.1-17,4.3-23.6,0.4l-4.4-2.5
					c-6-3.4-6.4-8.9-1.1-12.7l36-25.1C387,551.2,387.7,547.3,385,544z"/>
			</g>
			<g>
				<path class="st25" d="M534.4,517.5l0.2,36.1c0,1.8,0.6,3,1.9,3.8c1.1,0.6,2.8,0.9,5.2,0.9c1.6,0,3-0.1,4.2-0.3v7.3
					c-1.6,0.3-3.9,0.4-6.7,0.4c-6.1,0-10.8-0.9-13.9-2.7c-3.2-1.8-4.8-4.6-4.8-8.4l-0.2-37.2L534.4,517.5z"/>
			</g>
			<g>
				<path class="st25" d="M470.2,562.4c-1.3-0.7-2.2-1.6-2.8-2.5l0.1,18h-14.1l-0.3-47.3h14.1v5c2-3.3,9.1-5.7,18.8-5.7
					c8,0,14.8,1.6,20.3,4.7c0.2,0.1,0.5,0.3,0.7,0.4c5.8,3.4,8.6,7.6,8.6,12.7c0,5.1-2.8,9.3-8.5,12.8c-5.6,3.4-12.6,5.1-20.9,5.1
					C479.3,565.6,473.6,564.3,470.2,562.4z M466.3,547.7c0,3,1.8,5.5,5.2,7.5c3.5,2,7.9,3,12.9,3s9.1-1,12.4-3c3.4-2,5-4.5,5-7.5
					s-1.7-5.5-5.1-7.5c-0.1,0-0.2-0.1-0.2-0.1c-3.3-1.9-7.3-2.8-12.2-2.8c-5,0-9.4,1-12.9,3C468,542.2,466.3,544.7,466.3,547.7"/>
			</g>
			<g>
				<path class="st25" d="M374.6,500.6c0.3,0.2,0.6,0.3,0.9,0.5l60.8,40.9c5.3,3.6,5.3,8.8-0.1,12.3l-47.1,31
					c4.9-5.6,7.6-12,7.6-18.8c0-8.3-4.3-16.1-11.6-22.6c-0.4-0.5-1.1-1.2-2-1.8l-36.9-26.6c-5.2-3.7-4.7-9.1,1.1-12.5l4.4-2.5
					C358,496.9,368.3,496.9,374.6,500.6z"/>
			</g>
			<g>
				<path class="st25" d="M673.3,530.6l-26.2,39.8c-1.7,2.6-3.8,4.7-6.3,6.1c-3.5,1.9-8.2,2.8-14.2,2.9c-2.6,0-4.9-0.2-6.9-0.5v-7.1
					c1.8,0.3,4,0.5,6.6,0.5c2.2,0,3.9-0.3,5.2-0.7c1.3-0.5,2.5-1.5,3.4-2.9l1.5-2.4l-24.9-35.5h14.2l17.5,25.8l16.1-25.8
					L673.3,530.6z"/>
			</g>
			<g>
				<path class="st25" d="M614.7,558.4v6.6c-1.5,0.3-3.9,0.5-6.9,0.5c-3.4,0-6.1-0.3-8.2-1.1c-0.7-0.3-1.3-0.6-1.9-0.9
					c-1.5-0.9-2.5-2-3-3.3c-4.1,3.6-10.9,5.4-20.2,5.4c-8.1,0-15-1.6-20.7-4.9c-0.2-0.1-0.3-0.2-0.5-0.3c-5.6-3.5-8.5-7.7-8.5-12.8
					s2.8-9.3,8.4-12.7c5.7-3.5,12.7-5.2,21.1-5.2c6.9,0,12.6,1.3,16.1,3.3c1.3,0.7,2.2,1.5,2.8,2.4v-5h14.1l0.1,23.9
					c0,1.8,0.4,2.8,1.5,3.4c0.7,0.4,1.6,0.6,2.9,0.6C612.6,558.5,613.7,558.4,614.7,558.4z M589.2,555.2c3.5-2,5.3-4.5,5.2-7.5
					c0-2.9-1.7-5.4-5.1-7.3c-0.1,0-0.1-0.1-0.2-0.1c-3.4-2-7.7-3-12.8-3c-5,0-9.1,1-12.5,3c-3.3,2-4.9,4.5-4.9,7.5s1.7,5.5,5,7.5
					c3.4,2,7.5,3,12.6,3C581.5,558.2,585.8,557.2,589.2,555.2"/>
			</g>
		</g>
	</g>
	<g>
		<g>
			<g>
				<path class="st25" d="M847.8,764.2c0.6,0.3,1.1,0.7,1.5,1.1l35.4,41.1l0.4,0.5c-1.2-1.1-2.6-2.1-4.2-3
					c-3.8-2.2-8.7-3.9-14.8-4.9c-37.6-6-77.9,10.2-102.1,24.8l-9,4.2c-7.7,3.6-18.8,3.2-25.8-0.8c-8-4.6-7.5-12.2,1-16.4l93.8-45.6
					C830.6,761.9,842,760.8,847.8,764.2z"/>
			</g>
			<g>
				<path class="st25" d="M969.8,807.2v6.6c-1.5,0.3-3.9,0.5-6.9,0.5c-3.4,0-6.1-0.3-8.2-1.1c-0.7-0.3-1.3-0.6-1.8-0.9
					c-1.5-0.9-2.5-2-3-3.3c-4.1,3.6-10.9,5.4-20.2,5.4c-8.1,0-15-1.6-20.7-4.9c-0.2-0.1-0.3-0.2-0.5-0.3c-5.6-3.5-8.5-7.7-8.5-12.8
					s2.8-9.3,8.4-12.7c5.7-3.5,12.7-5.2,21.1-5.2c7,0,12.7,1.3,16.1,3.3c1.3,0.7,2.2,1.5,2.8,2.4v-5h14.1l0.1,23.9
					c0,1.8,0.4,2.8,1.5,3.4c0.7,0.4,1.6,0.6,2.9,0.6C967.7,807.3,968.8,807.2,969.8,807.2z M944.3,804c3.5-2,5.2-4.5,5.2-7.5
					c0-2.9-1.7-5.4-5.1-7.3c-0.1,0-0.1-0.1-0.2-0.1c-3.4-2-7.7-3-12.8-3c-5,0-9.1,1-12.5,3c-3.3,2-4.9,4.5-4.9,7.5s1.7,5.5,5,7.5
					c3.4,2,7.5,3,12.6,3C936.5,807,940.9,806,944.3,804"/>
			</g>
			<g>
				<polygon class="st25" points="1085.7,779.4 1062.7,794.7 1088.4,813.6 1072.5,813.6 1053.8,799.9 1047.9,803.7 1048,813.6 
					1034,813.6 1033.8,766.3 1047.7,766.3 1047.9,794 1069.6,779.4 				"/>
			</g>
			<g>
				<polygon class="st25" points="1027.6,779.4 1004.7,794.7 1030.3,813.6 1014.4,813.6 995.7,799.9 989.8,803.7 989.9,813.6 
					975.9,813.6 975.7,766.3 989.6,766.3 989.8,794 1011.5,779.4 				"/>
			</g>
			<g>
				<path class="st25" d="M1152,807.2v6.6c-1.5,0.3-3.9,0.5-6.9,0.5c-3.4,0-6.1-0.3-8.2-1.1c-0.7-0.3-1.3-0.6-1.8-0.9
					c-1.5-0.9-2.5-2-3-3.3c-4.1,3.6-10.9,5.4-20.2,5.4c-8.1,0-15-1.6-20.6-4.9c-0.2-0.1-0.3-0.2-0.5-0.3c-5.6-3.5-8.5-7.7-8.5-12.8
					s2.8-9.3,8.4-12.7c5.7-3.5,12.7-5.2,21.1-5.2c7,0,12.7,1.3,16.1,3.3c1.3,0.7,2.2,1.5,2.8,2.4v-4.9h14.1l0.1,23.9
					c0,1.7,0.4,2.8,1.5,3.4c0.7,0.4,1.6,0.6,2.9,0.6C1149.9,807.3,1151,807.3,1152,807.2z M1126.5,804c3.5-2,5.2-4.5,5.2-7.5
					c0-2.9-1.7-5.4-5.1-7.3c-0.1,0-0.1-0.1-0.2-0.1c-3.4-2-7.7-3-12.8-3c-5,0-9.1,1-12.5,3c-3.3,2-4.9,4.5-4.9,7.5s1.7,5.5,5,7.5
					c3.4,2,7.5,3,12.5,3C1118.8,807,1123.1,806,1126.5,804"/>
			</g>
			<g>
				<path class="st24" d="M881,803.9c1.6,0.9,3,1.9,4.2,3l-0.4-0.5c13.3,12-0.8,30.9-20.4,21.8c-37.9-17.5-97.7-4.8-100.9-4.1
					c0.1-0.1,0.2-0.1,0.3-0.2l0.3-0.1c24.2-14.6,64.5-30.9,102.1-24.8C872.3,800,877.2,801.7,881,803.9z"/>
			</g>
		</g>
	</g>
	<g>
		<g>
			<g>
				<path class="st24" d="M880.4,230.5c0.9,0.5,1.3,1.1,1.4,1.7v0.2c0,1.6-7.1,3-14.2,4.2c-10.5,1.8-24.6,3.1-37.5,3.8
					c-12.6-1.6-21.2-3.1-22.6-3.9l-0.1-0.1c10.2,0,41.8-1.9,60.8-5c3.7-0.6,7.2-1.2,9.7-1.9C878.9,229.8,879.8,230.2,880.4,230.5z"
					/>
			</g>
			<g>
				<polygon class="st26" points="807.2,241 807.3,241.2 807.2,241.2 				"/>
			</g>
			<g>
				<path class="st25" d="M881.9,253.9c0,2.9,0.1,8.8,0.1,12.6c0,1.5,0,2.9,0,4.1c0,1.4-6.5,2.7-13.6,3.8c-19.1,3-50.8,5-61,5
					c0-3.9-0.1-13.9-0.1-16.7c6,0,14.1-0.3,22.8-0.8c12.9-0.8,27.1-2.1,37.6-3.8C874.8,256.9,881.9,255.5,881.9,253.9z"/>
			</g>
			<g>
				<path class="st25" d="M881.6,210.9c0,2.3,0.1,11.3,0.1,16.7c0,0.7-1.5,1.3-3.8,1.9c-2.5,0.7-6.1,1.3-9.7,1.9
					c-19,3-50.6,5-60.8,5c-0.1-0.1-0.1-0.1-0.1-0.2c0-5.4-0.1-14.1-0.1-16.6c15,0,42.8-1.7,60.4-4.6
					C874.6,213.9,881.6,212.5,881.6,210.9z"/>
			</g>
			<g>
				<path class="st25" d="M881.7,232.4c0,2.9,0,8.8,0.1,12.6c0,1.5,0,2.9,0,4.1c0,0.7-1.5,1.3-3.8,1.9c-2.5,0.7-6.1,1.3-9.7,1.9
					c-19,3-50.6,5-60.8,5c-0.1-0.1-0.1-0.1-0.1-0.2c0-5.4-0.1-14.1-0.1-16.6c6,0,14.1-0.3,22.8-0.8c12.9-0.8,27.1-2.1,37.5-3.8
					C874.7,235.4,881.8,234,881.7,232.4z"/>
			</g>
			<g>
				<path class="st24" d="M880.5,252c0.9,0.5,1.4,1.1,1.4,1.7v0.2c0,1.6-7.1,3-14.2,4.2c-10.5,1.8-24.6,3.1-37.6,3.8
					c-12.6-1.6-21.1-3.1-22.6-3.9l-0.1-0.1c10.2,0,41.8-1.9,60.8-5c3.7-0.6,7.2-1.2,9.7-1.9C879,251.3,879.9,251.7,880.5,252z"/>
			</g>
			<g>
				<path class="st25" d="M934.2,228.5c1.2,0.7,2.3,1.5,3.3,2.4l-8.2,3.3c-0.5-0.5-1.1-0.9-1.7-1.2c-2.4-1.4-5.7-2.1-9.8-2.1
					c-5.1,0-8.8,1.7-8.8,4c0,1.6,1.1,2.3,2.7,3.2c1,0.4,3.6,1.1,4.8,1.4l3.3,0.8l3.8,0.9c5.8,1.4,10,2.8,12.7,4.4
					c0.1,0.1,0.3,0.2,0.4,0.3c2.7,1.7,4.1,3.9,4.1,6.7c0,6.6-7.8,11-22.5,11c-8.3,0-15.1-1.6-19.9-4.3c-2.1-1.2-3.7-2.6-5-4.2
					l8.7-3.2c1,1.1,2.2,2.1,3.6,2.9c3.2,1.8,7.4,2.8,12.6,2.8c8.1,0,10.9-2.5,10.9-4.9c0-1.2-0.6-2.2-2-3c-0.5-0.3-1-0.5-1.7-0.8
					c-2.7-1.1-4.6-1.6-9.5-2.6c-5.9-1.3-9.4-2.2-13.1-4c-0.4-0.2-0.8-0.4-1.1-0.6c-3-1.7-4.4-3.9-4.4-6.8c0-3,1.9-5.4,5.7-7.3
					c3.9-1.9,8.6-2.8,14.2-2.8C924.4,224.8,930,226,934.2,228.5z"/>
			</g>
			<g>
				<path class="st25" d="M1049.3,225.4l0.2,28.5c0,1.4,0.4,2.4,1.5,3c0.9,0.5,2.2,0.7,4.1,0.7c1.3,0,2.4-0.1,3.3-0.2v5.7
					c-1.3,0.2-3.1,0.3-5.3,0.3c-4.8,0-8.5-0.7-11-2.1c-2.5-1.5-3.8-3.7-3.8-6.6l-0.2-29.4L1049.3,225.4z"/>
			</g>
			<g>
				<path class="st25" d="M1035.7,257.7v5c-1.1,0.4-2.9,0.6-5.2,0.6c-2.5,0-4.5-0.4-5.9-1.3c-0.7-0.4-1.2-1-1.7-1.8
					c-3.2,2.2-8.5,3.3-15.8,3.3c-5.7,0-10.4-1-13.5-2.8c-2.4-1.4-3.8-3.2-3.8-5.4c0-5.5,6.3-8.3,20.1-9c7.9-0.4,10.6-1,10.6-3.1
					c0-0.7-0.4-1.3-1.3-1.8c-1.3-0.7-3.4-1.2-6.5-1.2c-5,0-9.2,1.2-12.5,3.5l-6.9-3.4c4.5-3.7,10.9-5.5,19.1-5.5
					c6.5,0,11.7,1,14.9,2.9c2.5,1.5,3.9,3.4,3.9,5.8l0.1,12c0,0.9,0.3,1.4,0.8,1.7c0.6,0.4,1.7,0.4,3.1,0.4L1035.7,257.7
					L1035.7,257.7z M1008.7,258.1c7.4,0,11.9-1.9,11.9-5.4v-3c-0.5,0.3-1.3,0.6-2.3,0.8c-2.1,0.4-3.5,0.5-8,0.8
					c-6.5,0.4-9.7,1.6-9.7,3.5c0,0.8,0.5,1.5,1.4,2.1C1003.4,257.6,1005.7,258.1,1008.7,258.1"/>
			</g>
			<g>
				<path class="st25" d="M987.1,239.1c0.2,0.1,0.5,0.3,0.7,0.4l-6.8,4.1c-0.1-0.1-0.2-0.1-0.4-0.2c-3.2-1.8-7-2.7-11.5-2.7
					c-4.1,0-7.5,0.8-10.3,2.4c-2.7,1.6-4.1,3.6-4,6.1c0,2.4,1.4,4.5,4.1,6.1c2.8,1.6,6.2,2.4,10.3,2.4c4.6,0,8.6-1,11.8-2.9l6.9,4.1
					c-5,3.1-11.2,4.7-18.7,4.7c-7.1,0-13.2-1.3-18.1-4.1c-0.1-0.1-0.2-0.1-0.4-0.2c-4.7-2.7-7-6.1-7-10c0-4.1,2.4-7.4,7.3-10.2
					c4.9-2.7,10.9-4.1,18-4.1C976.2,234.9,982.2,236.3,987.1,239.1z"/>
			</g>
			<g>
				<path class="st25" d="M1106.9,257.7v5c-1.1,0.4-2.9,0.6-5.2,0.6c-2.5,0-4.4-0.4-5.9-1.3c-0.7-0.4-1.2-1-1.7-1.8
					c-3.2,2.2-8.5,3.3-15.8,3.3c-5.7,0-10.4-1-13.5-2.8c-2.4-1.4-3.8-3.2-3.8-5.4c0-5.5,6.3-8.3,20.1-9c7.9-0.4,10.6-1,10.6-3.1
					c0-0.7-0.4-1.3-1.3-1.8c-1.3-0.7-3.4-1.2-6.5-1.2c-5,0-9.2,1.2-12.5,3.5l-6.9-3.4c4.5-3.7,10.9-5.5,19.1-5.5
					c6.5,0,11.7,1,14.9,2.9c2.5,1.5,3.9,3.4,3.9,5.8l0.1,12c0,0.9,0.3,1.4,0.8,1.7c0.6,0.4,1.7,0.4,3.1,0.4L1106.9,257.7
					L1106.9,257.7z M1080,258.1c7.4,0,11.9-1.9,11.9-5.4v-3c-0.5,0.3-1.3,0.6-2.3,0.8c-2.1,0.4-3.5,0.5-8,0.8
					c-6.5,0.4-9.7,1.6-9.7,3.5c0,0.8,0.5,1.5,1.4,2.1C1074.7,257.6,1077,258.1,1080,258.1"/>
			</g>
		</g>
	</g>
	<g>
		<g>
			<g>
				<path class="st25" d="M1090.2,348.4l0.1,21.1h-8.3l-0.9-3.2c-4.4,2.3-9.3,3.8-15.7,3.8c-5.2,0-9.2-0.8-11.8-2.3
					c-2.4-1.4-3.7-3.4-3.7-5.9c0-6.1,8.1-10.1,26-10.1h3.7v-2.7c0-1.7-0.7-3-2.2-3.9c-1.7-1-4.4-1.5-8.4-1.5
					c-5.3,0-10.7,0.8-14.9,1.7l-1.6-3.7c5.3-1.4,11.8-2.4,19.3-2.4c6.6,0,11.3,1,14.2,2.7C1088.9,343.6,1090.2,345.8,1090.2,348.4z
					 M1068.4,365.6c3.6,0,7.6-1.1,11.4-3v-7h-4.4c-11.9,0-14.8,2.3-14.8,5.4c0,1.4,0.7,2.6,2.1,3.4
					C1063.9,365.2,1065.9,365.6,1068.4,365.6"/>
			</g>
			<g class="st27">
				<g>
					<path class="st25" d="M858,343.3c-2.5-1.3-4.9-2.6-7.1-3.9c-9.1-5.3-14.4-10.1-9.2-14.6c9.4-8.2,35.6-12.1,29.7-25.4
						c0.7,0.4,14.4,8.3-13.5,21.1C835.5,330.8,852.8,336.7,858,343.3z"/>
				</g>
				<g>
					<path class="st25" d="M864.1,337.8c-22.6-15.1,24.5-21.9,24.6-21.9c-30.1,10.1-24.5,13.1-17.2,19c7.8,6.3-8.3,11.1-9.1,11.4
						C862.9,346,870.8,342.2,864.1,337.8z"/>
				</g>
				<g>
					<path class="st25" d="M892.8,343.8c-2.1,0.3-2.9,0.4-3,0.4c0,0,0.8-0.7,2.2-1c5.6-1.1,10.9-0.4,13.9,1.4
						c5.9,3.4,3.6,10.3-19.2,13.8c0,0,0.5-0.2,0.5-0.4c17.5-5.3,17.7-10.4,13.4-12.8C898.6,344.1,895.5,343.5,892.8,343.8z"/>
				</g>
				<g>
					<path class="st25" d="M947.1,362.8c0,6.6-0.9,9.2-3.9,11.8c-3,2.5-7.8,4.5-13,5.6l-5.1-3.5c4-1.2,7.4-3.1,9.1-4.9
						c1.4-1.6,1.9-3.7,1.9-8.6l-0.2-33.8H947L947.1,362.8z"/>
				</g>
			</g>
			<g>
				<path class="st25" d="M990.8,342.1c2.7,1.6,4,3.7,4,6.3l0.1,21.1h-8.3l-0.9-3.2c-4.4,2.3-9.3,3.8-15.7,3.8
					c-5.2,0-9.1-0.8-11.7-2.3c-2.4-1.4-3.7-3.4-3.7-5.9c0-6.1,8.1-10.1,26-10.1h3.7v-2.7c0-1.7-0.7-3-2.2-3.9
					c-1.7-1-4.4-1.5-8.4-1.5c-5.3,0-10.7,0.8-14.9,1.7l-1.5-3.7c5.3-1.4,11.8-2.4,19.3-2.4C983.2,339.4,987.9,340.4,990.8,342.1z
					 M984.4,362.7v-7H980c-11.9,0-14.8,2.3-14.8,5.4c0,1.4,0.7,2.6,2.1,3.4c1.3,0.8,3.3,1.2,5.8,1.2
					C976.6,365.6,980.6,364.6,984.4,362.7"/>
			</g>
			<g>
				<path class="st25" d="M1034.5,339.9h11.1c-3.2,9.8-8.4,20.4-15.7,29.6h-13l-15.8-29.6h11.4l9.8,18.2l2.3,5.5
					C1029.4,355.7,1032.8,347.6,1034.5,339.9z"/>
			</g>
			<g>
				<path class="st25" d="M881,348.4c-21,3.2-58.2,2.5-62.7,0c-0.9-0.5-0.4-1.2,2.1-1.9c12.1-3.3,21.3-2.9,21.8-2.9
					c-0.8,0.1-16.7,2.3-14,3.8c0.6,0.3,2.2,0.7,5.2,0.9c6.8,0.5,20.5,0.4,33.2-0.2c10.4-0.5,20.3-1.5,20.8-1.6
					C887.1,346.5,883.6,347.3,881,348.4z"/>
			</g>
			<g>
				<path class="st25" d="M834.1,365.1c-2.2-1.2-0.9-2.7,5.6-3.7c-0.1,0-2.4,0.8-1.2,1.5c0.6,0.3,2,0.7,4.9,0.9
					c10.9,0.7,16.5,0.6,28.6-0.7c0.2,0.1,3.1,1.2,7.6,2.2C861,369.9,838.9,367.9,834.1,365.1z"/>
			</g>
			<g>
				<path class="st25" d="M902.1,368.6c6.7,3.9-36.4,10.2-88.2,5.3c-3.4-0.3-5.4-0.8-6.3-1.3c-4.5-2.6,16.9-6.8,21.5-5
					c-0.1,0-1.7-0.1-4.7,0.3c-2.6,0.3-10.3,1.8-8.2,2.9c0.2,0.1,0.6,0.3,1.1,0.4c13.7,3.5,63,2.7,78.6-0.1c7.3-1.3,5-2.9,4.4-3.3
					C901,368.1,901.7,368.3,902.1,368.6z"/>
			</g>
			<g>
				<path class="st25" d="M882.1,356.7c-22.9,3.9-47.6,2.5-52.3-0.2c-2-1.2-0.4-2.6,6.6-3.9c-0.2,0.1-3,1.3-1.4,2.3
					c0.6,0.4,2,0.7,4.5,0.8c11.7,0.7,21,0.8,36.9-1C876.5,354.8,878.6,356,882.1,356.7z"/>
			</g>
			<g>
				<path class="st25" d="M888.3,376.6c18.8-2.1,20.5-4.5,20.6-4.7c-0.9,6.8-39,8.2-63.9,7.3c-15.8-0.6-19.4-2-19.6-2.1
					C840.9,378.6,867.1,378.9,888.3,376.6z"/>
			</g>
			<g>
				<polygon class="st25" points="1095.9,342.3 1095.1,342.3 1095.1,339.9 1096.3,339.9 1097.4,341.6 1098.5,339.9 1099.7,339.9 
					1099.7,342.3 1098.9,342.3 1098.9,340.5 1097.7,342.3 1097.2,342.3 1095.9,340.5 				"/>
			</g>
			<g>
				<polygon class="st25" points="1092.3,340.4 1091.1,340.4 1091.1,340 1094.4,340 1094.4,340.4 1093.3,340.4 1093.3,342.3 
					1092.4,342.3 1092.4,340.4 				"/>
			</g>
		</g>
	</g>
	<g>
		<g>
			<g>
				<path class="st25" d="M1413,554c2.2,5.7-1.6,19.5-4.2,24.7c-4.7,0-9.5,0-14.2,0c0.8-7.6,7.3-22.8-1.9-28.2
					c-3.2-1.8-8.2-2.5-15.9-1.3c-10.7,1.6-23.4,10.7-13.7,18.3c0.5,0.4,1,0.7,1.6,1.1c8,4.6,20.9,1.7,28.2-1.6c-1,3.7-2,7.3-3,11
					c-5.4,0.7-11.2,2.5-19,1.7c-7.7-0.8-13.5-2.6-17.6-4.9c-15.8-9.1-6.6-27.1,14.8-32.6c14.4-3.6,28.4-1.6,37,3.4
					C1408.9,547.9,1411.8,550.8,1413,554z"/>
			</g>
			<g class="st27">
				<g>
					<path class="st25" d="M1451.4,550c-4.5-0.1-9.2,0-12.5,0.5c-5.9,5.3-6.2,20.8-8,28.3c-5,0-10.1,0-15.1,0c0-0.1,0-0.2,0-0.3
						c8.3-18.5-5.9-37.7,37.3-37.2C1452.5,544.2,1451.9,547.1,1451.4,550z"/>
				</g>
				<g>
					<path class="st25" d="M1485.5,554.3c10,8.2,19.9,16.3,29.9,24.5c-6,0.1-15.8,0.7-20.3-0.5c-7.5-6.6-15-13.2-22.6-19.8
						c-1.5,6.7-3.1,13.5-4.6,20.3c-5.3,0-10.6,0-16,0c3.2-14.7,6.5-29.3,9.7-44c5.7-2.1,11.5-4.2,17.2-6.2c0.1,0,0.3,0,0.4,0
						c0,0.1,0,0.2,0,0.3c-1.7,7.2-3.4,14.5-5.1,21.7c0.1,0,0.3,0,0.4,0c8.7-5.6,17.5-11.2,26.2-16.8c0.9,3.2,1.8,6.3,2.6,9.5
						C1497.6,546.9,1491.5,550.6,1485.5,554.3z"/>
				</g>
			</g>
			<g>
				<path class="st25" d="M1257.1,551.8c6,3.5,10.7,7.5,8.4,13.7c-4.8,12.6-34.9,19.3-49.7,10.8c-3-1.8-5.4-4.2-6.8-7.3
					c5.3-1.6,10.6-3.2,15.9-4.7c0.6,1.5,2.1,2.9,4,4c5.6,3.2,15,4.1,18.9-1c2.8-3.1-0.7-5.8-4.2-7.8c-0.7-0.4-1.5-0.8-2.2-1.2
					c-0.6-0.3-1.2-0.6-1.7-0.9c-11.2-6.5-25.1-15.8-8.5-25.3c4.6-2.6,10-3.2,16.4-5c9.5-0.2,17.6,1.1,22.5,3.9
					c2,1.2,3.5,2.6,4.3,4.3c-4.9,2-9.8,4-14.6,6c-0.6-1.2-1.6-2.2-2.9-2.9c-3.9-2.3-10.4-2.6-15.6-0.3c-0.5,1-1.3,2.3-0.4,3.5
					c1.3,1.7,3.5,3.3,6.1,4.8c1.6,0.9,3.3,1.8,5.1,2.7C1253.6,549.9,1255.4,550.8,1257.1,551.8z"/>
			</g>
			<g>
				<path class="st25" d="M1331.1,545.3c17.2,9.9,5,27.7-15.1,32.7c-9.3,2.3-25.9,2.5-32.7-1.4c-0.2-0.1-0.4-0.2-0.6-0.4
					c-0.3,0.1-0.6,0.2-0.9,0.3c-1,4.7-2,9.3-2.9,14c-4.7,0-9.5,0-14.2,0c1.3-5.7,2.5-11.3,3.8-17c5-15.7,2.4-22.9,22.7-30
					c8.2-2.8,23.9-4.4,33.7-1C1327.3,543.3,1329.3,544.3,1331.1,545.3z M1300.9,571.3c19.7,1.9,29.5-13.1,18.4-19.5
					c-3.1-1.8-7.7-2.9-14.2-2.8c-5.2,1.3-10.1,1.7-13.4,4c-6.8,4.8-7,11.7-0.3,15.5C1293.7,569.9,1296.9,570.9,1300.9,571.3"/>
			</g>
			<g>
				<path class="st25" d="M1430.5,518.8c4.9-4.2,30.4-6.9,40.1-9c1.3-9.3,3.9-20.7,15-24.7c4.3,0,7.5,1.1,10.3,2.6
					c7.1,4.1,10.2,11.9,16.2,15.4c6.1-1.9,38.9-7.3,45.1-3.8c0.3,0.2,0.5,0.3,0.7,0.5c4.1,4.4-22.1,19.3-26.6,22.7
					c2.7,4.7,19.7,17.1,15.2,22.2c-6.5,7.6-28.4,0.2-38.9-1c-0.9-3.1-1.8-6.2-2.6-9.2c7.9,1.2,15.8,2.3,23.8,3.5
					c-4.8-5.2-9.6-10.3-14.3-15.5c7.3-5.1,14.6-10.2,21.9-15.3c-10.8,1.6-21.6,3.2-32.3,4.8l-15.6-15c0,0.2,0,0.3,0,0.5
					c-1.8,6.1-3.7,12.2-5.5,18.3c-10.6,1.9-21.3,3.8-31.9,5.7c0.1,0.2,0.3,0.3,0.4,0.5c7.9,1.8,15.8,3.5,23.8,5.2
					c-0.1,0.2-0.3,0.3-0.4,0.5c-5.5,2-10.9,4-16.4,6c-4.9-1.1-19-3.8-25.7-7.7C1428.8,523.9,1427.3,521.5,1430.5,518.8z"/>
			</g>
		</g>
	</g>
</g>
<g>
	<g>
		<g>
			<path class="st28" d="M250,1181.8v33.6c0,3.3,2.6,7.6,5.9,9.5l168.1,97c3.3,1.9,6.1,0.8,6.1-2.5v-33.6c-29-8.7-59.3-22.3-90-40
				C309.3,1228,279,1206.7,250,1181.8z"/>
		</g>
		<g>
			<path class="st28" d="M423.9,1165.8l-167.9-97c-3.3-1.9-5.9-0.8-5.9,2.5v92.9v6.1c29,25.2,59.3,46.8,90,64.6s61,30.9,90,39.4
				v-6.1v-92.9C430,1172,427.2,1167.7,423.9,1165.8z"/>
		</g>
	</g>
	<g>
		<path class="st28" d="M462.2,1210.3c0-1.3,1.1-1.8,2.4-1.1c1.3,0.8,2.4,2.5,2.4,3.9v36.2l15.4,8.9c1.2,0.7,2.2,2.3,2.2,3.5
			c0,1.2-1,1.6-2.2,0.9l-17.9-10.3c-1.3-0.7-2.4-2.5-2.4-3.8V1210.3z"/>
		<path class="st28" d="M493.7,1227.6c0-1.5,1.2-1.8,2.8-0.9c1.6,0.9,2.8,2.6,2.8,4.1v0.8c0,1.5-1.2,1.8-2.8,0.9
			c-1.5-0.9-2.8-2.6-2.8-4.1V1227.6z M494.2,1239.8c0-1.3,1-1.8,2.3-1c1.3,0.8,2.4,2.4,2.4,3.8v27.5c0,1.3-1,1.8-2.3,1
			c-1.3-0.8-2.4-2.4-2.4-3.8V1239.8z"/>
		<path class="st28" d="M511.6,1285.6c-0.7-0.8-1.2-1.8-1.2-2.7c0-1,1-1.5,2.1-0.8c0.4,0.2,0.7,0.5,1,0.9c3.3,4.1,7.1,7.5,11.2,9.9
			c7,4,11.5,2.8,11.5-4.6v-3.7c-2.8,2.1-6.6,2.9-12.4-0.5c-7.6-4.4-14.9-14.3-14.9-23.4v-0.1c0-9.2,7.3-10.7,14.9-6.3
			c5.9,3.4,9.8,8.6,12.4,13.5v-3.6c0-1.3,1-1.8,2.3-1c1.3,0.8,2.4,2.5,2.4,3.8v24c0,4.9-1.5,7.8-4,8.9c-2.8,1.2-7,0.2-12.1-2.7
			C520,1294.2,515.6,1290.4,511.6,1285.6z M536.4,1276.5v-0.1c0-6.5-5.6-14-11.6-17.4c-6-3.5-10.9-2.2-10.9,4.3v0.1
			c0,6.4,5.1,13.7,10.9,17.1C530.7,1283.9,536.4,1282.8,536.4,1276.5z"/>
		<path class="st28" d="M551.7,1260.1c0-1.3,1-1.8,2.3-1c1.3,0.8,2.4,2.5,2.4,3.8v16.5c2.1-2.2,5.4-3.1,10.8,0.1
			c7.6,4.4,12.1,12.1,12.1,19.7v17.6c0,1.3-1,1.8-2.3,1c-1.3-0.8-2.4-2.4-2.4-3.8v-16.4c0-5.9-3.2-11.4-8.7-14.6
			c-5.4-3.1-9.5-1.5-9.5,4.4v16c0,1.3-1,1.8-2.3,1c-1.3-0.8-2.4-2.4-2.4-3.8V1260.1z"/>
		<path class="st28" d="M590.5,1316.6v-19.1l-2.6-1.5c-1.1-0.6-2.1-2.2-2.1-3.3c0-1.2,1-1.5,2.1-0.9l2.6,1.5v-7.5c0-1.3,1-1.8,2.3-1
			c1.3,0.7,2.4,2.5,2.4,3.8v7.5l8.2,4.7c1.2,0.7,2.1,2.2,2.1,3.3c0,1.2-1,1.5-2.1,0.8l-8.2-4.7v18.5c0,3.9,2.1,6.5,5.3,8.3
			c1.7,1,2.5,1,2.9,1.2c1.1,0.6,2,2.1,2,3.2c0,0.9-0.6,1.2-1.3,1.1c-1.3-0.2-2.8-0.8-4.6-1.8
			C594.4,1327.8,590.5,1323.1,590.5,1316.6z"/>
		<path class="st28" d="M615.6,1297c0-1.3,1-1.8,2.3-1c1.3,0.8,2.4,2.4,2.4,3.8v17.3c2.6-2.3,6.3-3.4,12.1,0
			c7.6,4.4,15.1,14.7,15.1,25.1v0.1c0,10.3-7.5,12.1-15.1,7.7c-5.9-3.4-9.7-8.8-12.1-13.7v4c0,1.3-1,1.8-2.3,1
			c-1.3-0.8-2.4-2.5-2.4-3.8V1297z M642.7,1339.5v-0.1c0-7.5-5.1-15.2-11.1-18.7c-5.9-3.4-11.4-1.6-11.4,5.6v0.1
			c0,7.3,5.6,15.4,11.4,18.8C637.7,1348.7,642.7,1347.1,642.7,1339.5z"/>
		<path class="st28" d="M669.5,1371.4c-8.7-5-15.8-15.8-15.8-25.6v-0.1c0-9.1,6.4-12.7,15.2-7.7c9.4,5.4,14.7,16.1,14.7,24.5
			c0,1.3-1,1.6-2.2,0.9l-22.9-13.2c0.7,7.2,5.5,13.9,11.1,17.1c3.9,2.3,6.8,2.4,9.1,1.6c0.4-0.1,0.8-0.1,1.3,0.2
			c1.2,0.7,2.1,2.1,2.1,3.2c0,0.6-0.2,1-0.7,1.1C678.4,1374.6,674.9,1374.5,669.5,1371.4z M678.8,1358.5c-0.5-6-3.8-13-10.1-16.6
			c-5.5-3.2-9.7-1-10.3,4.8L678.8,1358.5z"/>
		<path class="st28" d="M691.4,1353.7c0-1.3,1-1.8,2.3-1c1.3,0.8,2.4,2.4,2.4,3.8v3.4c2.1-2.2,5.4-3.1,10.8,0.1
			c7.6,4.4,12.1,12.1,12.1,19.7v17.6c0,1.3-1,1.8-2.3,1c-1.3-0.8-2.4-2.4-2.4-3.8V1378c0-5.9-3.2-11.4-8.7-14.6
			c-5.4-3.1-9.5-1.5-9.5,4.4v16c0,1.3-1,1.8-2.3,1c-1.3-0.8-2.4-2.4-2.4-3.8V1353.7z"/>
		<path class="st28" d="M758.4,1419.9c0,1.3-1,1.8-2.3,1c-1.3-0.8-2.4-2.4-2.4-3.8v-4.3c-2.6,2.3-6.3,3.4-12.1,0
			c-7.6-4.4-15.1-14.7-15.1-25.1v-0.1c0-10.3,7.5-12.1,15.1-7.7c5.9,3.4,9.7,8.8,12.1,13.7v-17c0-1.3,1-1.8,2.3-1
			c1.3,0.8,2.4,2.4,2.4,3.8V1419.9z M731.3,1390.4v0.1c0,7.5,5.2,15.2,11.1,18.7c5.9,3.4,11.4,1.6,11.4-5.6v-0.1
			c0-7.3-5.6-15.4-11.4-18.8C736.3,1381.1,731.3,1382.8,731.3,1390.4z"/>
	</g>
	<g>
		<path class="st28" d="M458.8,1296v-0.2c0-16.7,12.6-23.1,30.7-12.7c11.1,6.4,17.7,13.9,23.2,22.5l-8.2,4.7
			c-4.5-6.7-9.2-11.9-15-15.3c-9.9-5.7-17.1-1.6-17.1,8.5v0.2c0,10.1,7,22.5,17.1,28.3c6.7,3.9,10.8,3.6,15.5,2l8.2,13.1
			c-6,3-12.8,3.1-24.1-3.4C471.7,1333.7,458.8,1312.9,458.8,1296z"/>
		<path class="st28" d="M515.2,1335.5v-0.2c0-12.9,10.4-17.4,24.4-9.3c13.9,8.1,24.3,24.3,24.3,37.3v0.2c0,12.9-10.4,17.4-24.4,9.3
			C525.5,1364.7,515.2,1348.5,515.2,1335.5z M551.3,1356.4v-0.2c0-6.6-4.8-15.2-11.8-19.3c-7.3-4.2-11.7-1.1-11.7,5.5v0.2
			c0,6.6,4.8,15.2,11.8,19.3C546.9,1366.1,551.3,1363,551.3,1356.4z"/>
		<path class="st28" d="M570,1344.4l12.8,7.4v6.4c2.9-2.1,6.7-3.3,13.2,0.4c9.7,5.6,15.3,15.2,15.3,25.5v29.1l-12.8-7.4v-25.1
			c0-6-2.9-10.8-7.7-13.6c-4.9-2.8-8-1.5-8,4.5v25.1l-12.8-7.4V1344.4z"/>
		<path class="st28" d="M617.3,1394.3v-0.2c0-15,9.8-17.6,20.5-11.4c6.8,3.9,11,9.5,14,14.8v-22.2l12.8,7.4v61.3l-12.8-7.4v-6.5
			c-3.1,2.4-7.4,3-14-0.8C627.3,1423.4,617.3,1409.4,617.3,1394.3z M652,1414.3v-0.2c0-7.5-5-15.3-10.9-18.7c-6-3.4-11-1.5-11,6.1
			v0.2c0,7.5,5,15.3,11,18.8C647.1,1423.9,652,1421.8,652,1414.3z"/>
		<path class="st28" d="M672.9,1433v-29.1l12.8,7.4v25.1c0,6,2.9,10.8,7.7,13.6s8,1.5,8-4.5v-25.1l12.8,7.4v45l-12.8-7.4v-6.4
			c-2.9,2.1-6.7,3.3-13.2-0.4C678.5,1452.9,672.9,1443.3,672.9,1433z"/>
		<path class="st28" d="M720.2,1453.9v-0.2c0-12.9,9.8-17.8,23.6-9.8c8.5,4.9,13.8,10.8,18,17.9l-7.8,3.9
			c-2.9-4.7-5.7-8.3-10.2-10.9c-6.4-3.7-10.9-0.7-10.9,6v0.2c0,6.9,4.5,15,11.4,19c4.3,2.5,7.2,2.3,10.3,1.2l7.5,11.9
			c-4.4,2.3-9.4,2.8-18.4-2.4C730.1,1482.9,720.2,1466.7,720.2,1453.9z"/>
		<path class="st28" d="M769.7,1492v-21.3l-5.4-3.1v-10.9l5.4,3.1v-11.5l12.8,7.4v11.5l10.6,6.1v10.9l-10.6-6.1v19.2
			c0,2.9,1.3,5.1,4.1,6.7c2.4,1.4,4.5,2,6.3,2v10.2c-2.7,0-5.8-0.7-10.1-3.2C775,1508.6,769.7,1502.4,769.7,1492z"/>
		<path class="st28" d="M801.4,1464.2l26.9,15.5c7.5,4.3,13.3,9.8,17.1,15.9c3.3,5.2,5,10.8,5,16.3v0.2c0,9.5-5.1,12.5-12.6,11
			l14.4,29.3l-15.1-8.7l-12.6-26.1l-10.2-5.9v18.8l-12.9-7.5V1464.2z M827.4,1507.8c6.3,3.6,9.9,2.4,9.9-2.6v-0.2
			c0-5.5-3.9-10.6-10.2-14.3l-12.9-7.4v16.9L827.4,1507.8z"/>
	</g>
</g>
<g>
	<g>
		<g>
			<path class="st28" d="M1061,1523.8v33.6c0,3.3,2.6,4.4,5.9,2.5l168.1-97c3.3-1.9,6.1-6.2,6.1-9.5v-33.6c-29,25-59.3,46.3-90,64
				S1090,1515.1,1061,1523.8z"/>
		</g>
		<g>
			<path class="st28" d="M1234.9,1307l-167.9,97c-3.3,1.9-5.9,6.2-5.9,9.5v92.9v6.1c29-8.4,59.3-21.6,90-39.4s61-39.3,90-64.6v-6.1
				v-92.9C1241,1306.2,1238.2,1305.1,1234.9,1307z"/>
		</g>
	</g>
	<g>
		<path class="st28" d="M1273.2,1307.1c0-1.3,1.1-3.1,2.4-3.8c1.3-0.8,2.4-0.3,2.4,1v36.2l15.4-8.9c1.2-0.7,2.2-0.2,2.2,1
			c0,1.2-1,2.8-2.2,3.5l-17.9,10.3c-1.3,0.7-2.4,0.3-2.4-1.1V1307.1z"/>
		<path class="st28" d="M1304.7,1288c0-1.5,1.2-3.2,2.8-4.1c1.6-0.9,2.8-0.6,2.8,0.9v0.8c0,1.5-1.2,3.2-2.8,4.1
			c-1.5,0.9-2.8,0.5-2.8-0.9V1288z M1305.2,1299.8c0-1.3,1-3,2.3-3.7c1.3-0.8,2.4-0.3,2.4,1v27.5c0,1.3-1,3-2.3,3.7
			c-1.3,0.8-2.4,0.3-2.4-1V1299.8z"/>
		<path class="st28" d="M1322.6,1325.4c-0.7,0.1-1.2-0.4-1.2-1.3c0-1,1-2.7,2.1-3.3c0.4-0.2,0.7-0.3,1-0.3c3.3,0.3,7.1-0.7,11.2-3
			c7-4,11.5-10.5,11.5-17.9v-3.7c-2.8,5.3-6.6,10.5-12.4,13.8c-7.6,4.4-14.9,2.9-14.9-6.2v-0.1c0-9.2,7.3-19.2,14.9-23.5
			c5.9-3.4,9.8-2.7,12.4-0.8v-3.6c0-1.3,1-3,2.3-3.7c1.3-0.8,2.4-0.3,2.4,1v24c0,4.9-1.5,9.5-4,13.5c-2.8,4.4-7,8.3-12.1,11.2
			C1331,1324.3,1326.6,1325.6,1322.6,1325.4z M1347.4,1287.6v-0.1c0-6.5-5.6-7.5-11.6-4s-10.9,10.5-10.9,17v0.1
			c0,6.4,5.1,7.8,10.9,4.4C1341.7,1301.6,1347.4,1294,1347.4,1287.6z"/>
		<path class="st28" d="M1362.7,1253.5c0-1.3,1-3,2.3-3.7c1.3-0.8,2.4-0.3,2.4,1v16.5c2.1-4.6,5.4-9.3,10.8-12.4
			c7.6-4.4,12.1-1.9,12.1,5.7v17.6c0,1.3-1,3-2.3,3.7c-1.3,0.8-2.4,0.3-2.4-1v-16.4c0-5.9-3.2-7.7-8.7-4.5
			c-5.4,3.1-9.5,9.5-9.5,15.4v16c0,1.3-1,3-2.3,3.7c-1.3,0.8-2.4,0.3-2.4-1V1253.5z"/>
		<path class="st28" d="M1401.5,1265.3v-19.1l-2.6,1.5c-1.1,0.6-2.1,0.2-2.1-0.9c0-1.2,1-2.6,2.1-3.3l2.6-1.5v-7.5
			c0-1.3,1-3,2.3-3.7c1.3-0.7,2.4-0.3,2.4,1v7.5l8.2-4.7c1.2-0.7,2.1-0.3,2.1,0.8c0,1.2-1,2.6-2.1,3.3l-8.2,4.7v18.5
			c0,3.9,2.1,4,5.3,2.2c1.7-1,2.5-1.9,2.9-2.1c1.1-0.6,2-0.2,2,0.9c0,0.9-0.6,1.8-1.3,2.6c-1.3,1.3-2.8,2.5-4.6,3.5
			C1405.4,1272,1401.5,1271.7,1401.5,1265.3z"/>
		<path class="st28" d="M1426.6,1216.6c0-1.3,1-3,2.3-3.7c1.3-0.8,2.4-0.3,2.4,1v17.3c2.6-5.3,6.3-10.7,12.1-14
			c7.6-4.4,15.1-2.7,15.1,7.7v0.1c0,10.3-7.5,20.8-15.1,25.2c-5.9,3.4-9.7,2.4-12.1,0.3v4c0,1.3-1,3-2.3,3.7c-1.3,0.8-2.4,0.3-2.4-1
			V1216.6z M1453.7,1227.8v-0.1c0-7.5-5.1-9.3-11.1-5.8c-5.9,3.4-11.4,11.6-11.4,18.8v0.1c0,7.3,5.6,9,11.4,5.6
			C1448.7,1242.9,1453.7,1235.4,1453.7,1227.8z"/>
		<path class="st28" d="M1480.5,1228.8c-8.7,5-15.8,2.4-15.8-7.3v-0.1c0-9.1,6.4-20.2,15.2-25.2c9.4-5.4,14.7-0.8,14.7,7.6
			c0,1.3-1,2.8-2.2,3.5l-22.9,13.2c0.7,6.5,5.5,7.5,11.1,4.3c3.9-2.3,6.8-5.4,9.1-8.9c0.4-0.5,0.8-1,1.3-1.3
			c1.2-0.7,2.1-0.3,2.1,0.8c0,0.6-0.2,1.2-0.7,2C1489.4,1221.8,1485.9,1225.7,1480.5,1228.8z M1489.8,1205.1
			c-0.5-5.5-3.8-8.6-10.1-4.9c-5.5,3.2-9.7,10.2-10.3,16.7L1489.8,1205.1z"/>
		<path class="st28" d="M1502.4,1185.9c0-1.3,1-3,2.3-3.7c1.3-0.8,2.4-0.3,2.4,1v3.4c2.1-4.6,5.4-9.3,10.8-12.4
			c7.6-4.4,12.1-1.9,12.1,5.7v17.6c0,1.3-1,3-2.3,3.7c-1.3,0.8-2.4,0.3-2.4-1v-16.4c0-5.9-3.2-7.7-8.7-4.5
			c-5.4,3.1-9.5,9.5-9.5,15.4v16c0,1.3-1,3-2.3,3.7c-1.3,0.8-2.4,0.3-2.4-1V1185.9z"/>
		<path class="st28" d="M1569.4,1174.6c0,1.3-1,3-2.3,3.7c-1.3,0.8-2.4,0.3-2.4-1v-4.3c-2.6,5.3-6.3,10.7-12.1,14
			c-7.6,4.4-15.1,2.7-15.1-7.7v-0.1c0-10.3,7.5-20.8,15.1-25.2c5.9-3.4,9.7-2.4,12.1-0.3v-17c0-1.3,1-3,2.3-3.7
			c1.3-0.8,2.4-0.3,2.4,1V1174.6z M1542.3,1176.5v0.1c0,7.5,5.2,9.2,11.1,5.8c5.9-3.4,11.4-11.6,11.4-18.8v-0.1
			c0-7.3-5.6-9-11.4-5.6C1547.3,1161.4,1542.3,1168.8,1542.3,1176.5z"/>
	</g>
	<g>
		<path class="st28" d="M1269.8,1396.7v-0.2c0-16.7,12.6-37.7,30.7-48.1c11.1-6.4,17.7-6.5,23.2-4.3l-8.2,14.2
			c-4.5-1.5-9.2-1.4-15,2c-9.9,5.7-17.1,18.1-17.1,28.2v0.2c0,10.1,7,14.5,17.1,8.6c6.7-3.9,10.8-8.9,15.5-15.8l8.2,3.6
			c-6,10-12.8,17.9-24.1,24.4C1282.7,1419.5,1269.8,1413.6,1269.8,1396.7z"/>
		<path class="st28" d="M1326.2,1371.1v-0.2c0-12.9,10.4-29.4,24.4-37.5c13.9-8.1,24.3-3.7,24.3,9.3v0.2c0,12.9-10.4,29.4-24.4,37.5
			C1336.5,1388.4,1326.2,1384.1,1326.2,1371.1z M1362.3,1350.3v-0.2c0-6.6-4.8-9.7-11.8-5.6c-7.3,4.2-11.7,12.4-11.7,19v0.2
			c0,6.6,4.8,9.7,11.8,5.6C1357.9,1365.1,1362.3,1356.9,1362.3,1350.3z"/>
		<path class="st28" d="M1381,1316.7l12.8-7.4v6.4c2.9-5.5,6.7-11.1,13.2-14.8c9.7-5.6,15.3-2.4,15.3,7.9v29.1l-12.8,7.4v-25.1
			c0-6-2.9-7.5-7.7-4.7s-8,7.7-8,13.8v25.1l-12.8,7.4V1316.7z"/>
		<path class="st28" d="M1428.3,1312v-0.2c0-15,9.8-28.9,20.5-35.1c6.8-3.9,11-3.2,14-1.4v-22.2l12.8-7.4v61.3l-12.8,7.4v-6.5
			c-3.1,6-7.4,11.6-14,15.4C1438.3,1329.5,1428.3,1327,1428.3,1312z M1463,1292v-0.2c0-7.5-5-9.6-10.9-6.1c-6,3.4-11,11.2-11,18.8
			v0.2c0,7.5,5,9.5,11,6.1C1458.1,1307.3,1463,1299.4,1463,1292z"/>
		<path class="st28" d="M1483.9,1286.5v-29.1l12.8-7.4v25.1c0,6,2.9,7.5,7.7,4.7s8-7.7,8-13.8v-25.1l12.8-7.4v45l-12.8,7.4v-6.4
			c-2.9,5.5-6.7,11.1-13.2,14.8C1489.5,1299.9,1483.9,1296.8,1483.9,1286.5z"/>
		<path class="st28" d="M1531.2,1252.8v-0.2c0-12.9,9.8-29.1,23.6-37.1c8.5-4.9,13.8-5.1,18-2.8l-7.8,12.9c-2.9-1.4-5.7-1.7-10.2,1
			c-6.4,3.7-10.9,11.9-10.9,18.6v0.2c0,6.9,4.5,9.9,11.4,5.8c4.3-2.5,7.2-6,10.3-10.8l7.5,3.2c-4.4,7.3-9.4,13.7-18.4,18.9
			C1541.1,1270.3,1531.2,1265.6,1531.2,1252.8z"/>
		<path class="st28" d="M1580.7,1233.7v-21.3l-5.4,3.1v-10.9l5.4-3.1v-11.5l12.8-7.4v11.5l10.6-6.1v10.9l-10.6,6.1v19.2
			c0,2.9,1.3,3.6,4.1,2c2.4-1.4,4.5-3.2,6.3-5.2v10.2c-2.7,3.1-5.8,6-10.1,8.4C1586,1244.1,1580.7,1244.1,1580.7,1233.7z"/>
		<path class="st28" d="M1612.4,1169.4l26.9-15.5c7.5-4.3,13.3-5.6,17.1-3.9c3.3,1.4,5,5,5,10.5v0.2c0,9.5-5.1,18.4-12.6,25.5
			l14.4,12.7l-15.1,8.7l-12.6-11.5l-10.2,5.9v18.8l-12.9,7.5V1169.4z M1638.4,1182.9c6.3-3.6,9.9-9.1,9.9-14v-0.2
			c0-5.5-3.9-6.2-10.2-2.5l-12.9,7.4v16.9L1638.4,1182.9z"/>
	</g>
</g>
<g>
	<path class="st29" d="M1815.8,1067.2h10.3v30.4h14.8v8.6h-25.1V1067.2z"/>
	<path class="st29" d="M1846.2,1067.3c0-3,2.4-5.2,5.8-5.2s5.8,2.2,5.8,5.2c0,3-2.4,5.2-5.8,5.2S1846.2,1070.3,1846.2,1067.3z
		 M1846.8,1076.2h10.3v30h-10.3V1076.2z"/>
	<path class="st29" d="M1866.6,1105.3v-0.2c-1.6-1.1-2.8-2.6-2.8-5.2c0-2,1.3-4.2,3.4-5.6v-0.2c-2.2-1.4-4.1-4.2-4.1-7.7
		c0-7.4,6.2-10.9,12.8-10.9c1.7,0,3.4,0.2,4.8,0.7h11.2v7.4h-4.3c0.2,0.7,0.5,1.9,0.5,3.1c0,7.1-5.4,10-12.1,10c-1,0-2-0.1-3.4-0.4
		c-0.6,0.5-0.7,0.9-0.7,1.7c0,1.3,1.2,1.8,4.2,1.8h4.5c7.5,0,11.8,2.3,11.8,7.8c0,6.5-6.7,10.9-17.4,10.9c-6.8,0-12.6-2-12.6-7.4
		C1862.4,1108.6,1863.8,1106.8,1866.6,1105.3z M1876.7,1112.2c3.4,0,5.9-1.1,5.9-2.8c0-1.6-1.4-1.8-4-1.8h-2.3
		c-2.4,0-3.5-0.1-4.3-0.4c-0.7,0.7-1.1,1.3-1.1,2.2C1870.8,1111.3,1873.2,1112.2,1876.7,1112.2z M1879.2,1086.4
		c0-2.8-1.3-4.1-3.2-4.1s-3.2,1.3-3.2,4.1c0,2.9,1.3,4.2,3.2,4.2S1879.2,1089.3,1879.2,1086.4z"/>
	<path class="st29" d="M1896.8,1064.4h10.3v9.7l-0.5,5.2c2-1.8,4.9-3.8,9-3.8c6.6,0,9.4,4.8,9.4,12.2v18.5h-10.3V1089
		c0-3.8-1-4.8-3-4.8c-1.9,0-3,0.8-4.6,2.3v19.7h-10.3V1064.4z"/>
	<path class="st29" d="M1933.1,1084.2h-4v-7.7l4.6-0.4l1.2-7.8h8.5v7.8h6.8v8h-6.8v10.3c0,3.3,1.7,4.4,3.6,4.4c1,0,1.9-0.2,2.6-0.5
		l1.6,7.4c-1.6,0.5-3.8,1.1-7.1,1.1c-7.8,0-11-4.9-11-12.2V1084.2z"/>
	<path class="st29" d="M1955.7,1064.4h10.3v9.7l-0.2,4.3c2.1-1.9,4.7-3,7.4-3c7.1,0,11.7,6,11.7,15.2c0,10.4-6.1,16.3-12.5,16.3
		c-2.6,0-5.3-1.3-7.6-4h-0.2l-0.8,3.2h-8V1064.4z M1969.9,1098.5c2.4,0,4.4-1.9,4.4-7.7c0-4.9-1.4-7-4.2-7c-1.6,0-2.8,0.6-4.1,2.2
		v11C1967.3,1098.1,1968.6,1098.5,1969.9,1098.5z"/>
	<path class="st29" d="M2003.4,1075.5c8.9,0,13.1,6.5,13.1,14.5c0,1.8-0.2,3.4-0.4,4.1h-17.1c1,3.8,3.6,5,7,5c2,0,4-0.6,6.1-1.8
		l3.4,6.1c-3.2,2.3-7.6,3.5-10.9,3.5c-8.8,0-15.5-5.8-15.5-15.7C1989,1081.5,1996.1,1075.5,2003.4,1075.5z M2007.7,1087.8
		c0-2.5-1-4.6-4.1-4.6c-2.3,0-4.2,1.3-4.8,4.6H2007.7z"/>
	<path class="st29" d="M2022.1,1076.2h8.4l0.7,3.6h0.2c2.4-2.3,5.4-4.3,9.5-4.3c6.6,0,9.4,4.8,9.4,12.2v18.5H2040V1089
		c0-3.8-1-4.8-3-4.8c-1.9,0-3,0.8-4.6,2.3v19.7h-10.3V1076.2z"/>
	<path class="st29" d="M2067.9,1075.5c3.2,0,5.2,1.2,7,3l-0.4-4.3v-9.7h10.3v41.8h-8.4l-0.7-2.8h-0.2c-2,2-4.9,3.5-7.6,3.5
		c-7.4,0-12.2-6-12.2-15.7C2055.7,1081.3,2061.8,1075.5,2067.9,1075.5z M2070.7,1098.5c1.6,0,2.8-0.5,3.8-2.2v-11
		c-1.2-1.1-2.8-1.4-4.1-1.4c-2.2,0-4.2,1.9-4.2,7.2C2066.3,1096.5,2067.9,1098.5,2070.7,1098.5z"/>
	<path class="st29" d="M2122.7,1066.5c4.9,0,9.1,2.4,11.9,5.2l-5.6,6.4c-1.9-1.7-3.6-2.6-6.1-2.6c-4.7,0-8.6,4.2-8.6,11.3
		c0,7.3,3.4,11.4,8.4,11.4c3,0,5.2-1.3,6.8-3.1l5.6,6.2c-3.3,3.8-7.8,5.8-12.6,5.8c-10.2,0-18.8-6.6-18.8-19.9
		C2103.6,1073.9,2112.6,1066.5,2122.7,1066.5z"/>
	<path class="st29" d="M2152.9,1075.5c7.7,0,14.9,5.8,14.9,15.7c0,10-7.2,15.7-14.9,15.7s-14.9-5.8-14.9-15.7
		C2138,1081.2,2145.2,1075.5,2152.9,1075.5z M2152.9,1098.6c3.1,0,4.3-2.9,4.3-7.4c0-4.6-1.2-7.4-4.3-7.4c-3.1,0-4.3,2.9-4.3,7.4
		C2148.6,1095.7,2149.8,1098.6,2152.9,1098.6z"/>
	<path class="st29" d="M2173.2,1076.2h8.4l0.7,3.6h0.2c2.4-2.3,5.4-4.3,9.5-4.3c6.6,0,9.4,4.8,9.4,12.2v18.5h-10.3V1089
		c0-3.8-1-4.8-3-4.8c-1.9,0-3,0.8-4.6,2.3v19.7h-10.3V1076.2z"/>
	<path class="st29" d="M2219,1075.5c3.2,0,5.2,1.2,7,3l-0.4-4.3v-9.7h10.3v41.8h-8.4l-0.7-2.8h-0.2c-2,2-4.9,3.5-7.6,3.5
		c-7.4,0-12.2-6-12.2-15.7C2206.8,1081.3,2212.9,1075.5,2219,1075.5z M2221.8,1098.5c1.6,0,2.8-0.5,3.8-2.2v-11
		c-1.2-1.1-2.8-1.4-4.1-1.4c-2.2,0-4.2,1.9-4.2,7.2C2217.3,1096.5,2219,1098.5,2221.8,1098.5z"/>
	<path class="st29" d="M2242.7,1076.2h10.3v17.2c0,3.8,1,4.8,3,4.8c1.9,0,3-0.7,4.3-2.6v-19.3h10.3v30h-8.4l-0.7-4h-0.2
		c-2.4,2.9-5.2,4.7-9.2,4.7c-6.6,0-9.4-4.8-9.4-12.2V1076.2z"/>
	<path class="st29" d="M2292.1,1075.5c3.6,0,6.7,1.3,8.8,3.4l-4.7,6.4c-1.3-1.1-2.4-1.4-3.5-1.4c-3.8,0-6.1,2.9-6.1,7.4
		c0,4.6,2.5,7.4,5.8,7.4c1.9,0,3.5-1,4.8-1.9l4.1,6.5c-3,2.6-7,3.7-10.1,3.7c-8.5,0-15.1-5.8-15.1-15.7
		C2276,1081.2,2283.6,1075.5,2292.1,1075.5z"/>
	<path class="st29" d="M2307.2,1084.2h-4v-7.7l4.6-0.4l1.2-7.8h8.5v7.8h6.8v8h-6.8v10.3c0,3.3,1.7,4.4,3.6,4.4c1,0,1.9-0.2,2.6-0.5
		l1.6,7.4c-1.6,0.5-3.8,1.1-7.1,1.1c-7.8,0-11-4.9-11-12.2V1084.2z"/>
	<path class="st29" d="M2351.7,1106.2l-6.7-13.1h-4v13.1h-10.3v-39h14.8c8.4,0,15.6,2.9,15.6,12.6c0,5.6-2.5,9.2-6.3,11.3l8.5,15.1
		H2351.7z M2341,1084.9h3.7c4.1,0,6.2-1.8,6.2-5.2c0-3.4-2.2-4.4-6.2-4.4h-3.7V1084.9z"/>
</g>
<g>
	<path class="st30" d="M1045.1,2136.6c3.1,0,5.6,1.5,7.2,3.2l-1.9,2.1c-1.4-1.5-3.1-2.4-5.2-2.4c-5,0-8.3,4.1-8.3,10.6
		c0,6.6,3.2,10.8,8.2,10.8c2.5,0,4.3-1,6-2.9l1.9,2c-2,2.4-4.6,3.8-8,3.8c-6.6,0-11.5-5-11.5-13.6
		C1033.4,2141.7,1038.4,2136.6,1045.1,2136.6z"/>
	<path class="st30" d="M1064.9,2143.4c4.8,0,9,3.7,9,10.2c0,6.4-4.2,10.2-9,10.2c-4.8,0-9-3.7-9-10.2
		C1055.9,2147.1,1060.1,2143.4,1064.9,2143.4z M1064.9,2161.1c3.4,0,5.6-3,5.6-7.4c0-4.5-2.2-7.5-5.6-7.5c-3.3,0-5.6,3-5.6,7.5
		C1059.3,2158.1,1061.6,2161.1,1064.9,2161.1z"/>
	<path class="st30" d="M1079,2143.9h2.7l0.3,2.8h0.1c1.8-1.8,3.8-3.3,6.5-3.3c4.1,0,5.9,2.6,5.9,7.6v12.3h-3.3v-11.9
		c0-3.6-1.1-5.2-3.7-5.2c-2,0-3.4,1-5.3,3v14.1h-3.3V2143.9z"/>
	<path class="st30" d="M1107.9,2143.4c2.2,0,3.7,0.8,5.4,2.2l-0.2-3.3v-7.5h3.3v28.5h-2.7l-0.3-2.3h-0.1c-1.5,1.5-3.6,2.8-5.9,2.8
		c-4.9,0-8-3.7-8-10.2C1099.5,2147.3,1103.5,2143.4,1107.9,2143.4z M1108.3,2161c1.8,0,3.4-0.9,5-2.7v-10.2c-1.6-1.5-3.1-2-4.7-2
		c-3.1,0-5.6,3-5.6,7.4C1102.9,2158.2,1104.9,2161,1108.3,2161z"/>
	<path class="st30" d="M1122.8,2143.9h3.3v11.9c0,3.6,1.1,5.2,3.6,5.2c2,0,3.4-1,5.2-3.3v-13.8h3.3v19.4h-2.7l-0.3-3h-0.1
		c-1.8,2.1-3.7,3.5-6.4,3.5c-4.1,0-6-2.6-6-7.6V2143.9z"/>
	<path class="st30" d="M1152.8,2143.4c2.6,0,4.4,1.1,5.7,2.3l-1.6,2.1c-1.2-1-2.4-1.7-3.9-1.7c-3.5,0-6.1,3-6.1,7.5
		c0,4.4,2.4,7.4,6,7.4c1.8,0,3.4-0.9,4.6-2l1.5,2.2c-1.8,1.6-4,2.5-6.3,2.5c-5.2,0-9.1-3.7-9.1-10.2
		C1143.4,2147.1,1147.8,2143.4,1152.8,2143.4z"/>
	<path class="st30" d="M1163.7,2146.5h-2.9v-2.5l3-0.2l0.4-5.4h2.8v5.4h5.2v2.7h-5.2v10.8c0,2.4,0.8,3.8,3,3.8
		c0.7,0,1.6-0.3,2.2-0.5l0.6,2.5c-1.1,0.4-2.4,0.7-3.6,0.7c-4.2,0-5.6-2.6-5.6-6.5V2146.5z"/>
	<path class="st30" d="M1191.2,2163.3l-6.3-11.1h-4.7v11.1h-3.4v-26.2h8.2c5.3,0,9.2,1.9,9.2,7.4c0,4.1-2.3,6.5-5.9,7.4l6.7,11.4
		H1191.2z M1180.2,2149.5h4.4c4.1,0,6.3-1.7,6.3-5.1c0-3.4-2.2-4.7-6.3-4.7h-4.4V2149.5z"/>
	<path class="st30" d="M1207.1,2137.7c0-1.3,1-2.1,2.3-2.1s2.3,0.8,2.3,2.1c0,1.2-1,2.1-2.3,2.1S1207.1,2139,1207.1,2137.7z
		 M1207.7,2143.9h3.3v19.4h-3.3V2143.9z"/>
	<path class="st30" d="M1217.1,2158.9c1.7,1.4,3.4,2.3,5.7,2.3c2.6,0,3.8-1.4,3.8-3c0-2-2.3-2.9-4.4-3.7c-2.8-1-5.8-2.3-5.8-5.6
		c0-3.1,2.5-5.5,6.7-5.5c2.4,0,4.6,1,6,2.2l-1.6,2.1c-1.3-1-2.7-1.7-4.4-1.7c-2.4,0-3.6,1.3-3.6,2.8c0,1.8,2.1,2.5,4.3,3.4
		c2.8,1,5.9,2.2,5.9,5.9c0,3.2-2.5,5.8-7.1,5.8c-2.8,0-5.4-1.2-7.2-2.7L1217.1,2158.9z"/>
	<path class="st30" d="M1249.5,2143.4c2.2,0,3.7,0.8,5.4,2.2l-0.2-3.3v-7.5h3.3v28.5h-2.7l-0.3-2.3h-0.1c-1.5,1.5-3.6,2.8-5.9,2.8
		c-4.9,0-8-3.7-8-10.2C1241,2147.3,1245,2143.4,1249.5,2143.4z M1249.8,2161c1.8,0,3.4-0.9,5-2.7v-10.2c-1.6-1.5-3.1-2-4.7-2
		c-3.1,0-5.6,3-5.6,7.4C1244.4,2158.2,1246.4,2161,1249.8,2161z"/>
	<path class="st30" d="M1271.9,2143.4c5,0,7.8,3.6,7.8,9.1c0,0.7,0,1.3-0.1,1.8h-13.1c0.2,4.2,2.8,6.8,6.5,6.8
		c1.8,0,3.4-0.6,4.8-1.5l1.2,2.2c-1.7,1.1-3.8,2-6.4,2c-5.2,0-9.3-3.8-9.3-10.2C1263.2,2147.3,1267.5,2143.4,1271.9,2143.4z
		 M1276.8,2152.1c0-4-1.8-6.2-4.8-6.2c-2.7,0-5.2,2.2-5.6,6.2H1276.8z"/>
	<path class="st30" d="M1283.9,2158.9c1.7,1.4,3.4,2.3,5.7,2.3c2.6,0,3.8-1.4,3.8-3c0-2-2.3-2.9-4.4-3.7c-2.8-1-5.8-2.3-5.8-5.6
		c0-3.1,2.5-5.5,6.7-5.5c2.4,0,4.6,1,6,2.2l-1.6,2.1c-1.3-1-2.7-1.7-4.4-1.7c-2.4,0-3.6,1.3-3.6,2.8c0,1.8,2.1,2.5,4.3,3.4
		c2.8,1,5.9,2.2,5.9,5.9c0,3.2-2.5,5.8-7.1,5.8c-2.8,0-5.4-1.2-7.2-2.7L1283.9,2158.9z"/>
	<path class="st30" d="M1300.6,2137.7c0-1.3,1-2.1,2.3-2.1c1.3,0,2.3,0.8,2.3,2.1c0,1.2-1,2.1-2.3,2.1
		C1301.6,2139.9,1300.6,2139,1300.6,2137.7z M1301.2,2143.9h3.3v19.4h-3.3V2143.9z"/>
	<path class="st30" d="M1312.4,2162.6v-0.2c-1-0.6-1.7-1.6-1.7-3.2c0-1.6,1.1-2.9,2.1-3.6v-0.2c-1.3-1-2.5-2.9-2.5-5.2
		c0-4.2,3.4-6.9,7.3-6.9c1.1,0,2,0.2,2.8,0.5h6.8v2.5h-4c0.9,0.9,1.6,2.4,1.6,4c0,4.2-3.2,6.8-7.1,6.8c-1,0-2-0.2-2.9-0.7
		c-0.7,0.6-1.2,1.2-1.2,2.3c0,1.2,0.8,2.1,3.4,2.1h3.8c4.5,0,6.8,1.4,6.8,4.6c0,3.6-3.8,6.7-9.8,6.7c-4.8,0-8-1.9-8-5.2
		C1309.6,2165.4,1310.7,2163.8,1312.4,2162.6z M1318.1,2170c3.7,0,6.2-1.9,6.2-4c0-1.8-1.4-2.4-3.9-2.4h-3.4c-0.8,0-1.7-0.1-2.5-0.3
		c-1.4,1-2,2.2-2,3.3C1312.5,2168.7,1314.6,2170,1318.1,2170z M1321.7,2150.3c0-2.8-1.8-4.5-4.1-4.5c-2.3,0-4.1,1.7-4.1,4.5
		s1.9,4.6,4.1,4.6C1319.9,2154.9,1321.7,2153.1,1321.7,2150.3z"/>
	<path class="st30" d="M1331.2,2143.9h2.7l0.3,2.8h0.1c1.8-1.8,3.8-3.3,6.5-3.3c4.1,0,5.9,2.6,5.9,7.6v12.3h-3.3v-11.9
		c0-3.6-1.1-5.2-3.7-5.2c-2,0-3.4,1-5.3,3v14.1h-3.3V2143.9z"/>
	<path class="st30" d="M1360.4,2143.4c5,0,7.8,3.6,7.8,9.1c0,0.7,0,1.3-0.1,1.8h-13.1c0.2,4.2,2.8,6.8,6.5,6.8
		c1.8,0,3.4-0.6,4.8-1.5l1.2,2.2c-1.7,1.1-3.8,2-6.4,2c-5.2,0-9.3-3.8-9.3-10.2C1351.7,2147.3,1355.9,2143.4,1360.4,2143.4z
		 M1365.3,2152.1c0-4-1.8-6.2-4.8-6.2c-2.7,0-5.2,2.2-5.6,6.2H1365.3z"/>
	<path class="st30" d="M1380,2143.4c2.2,0,3.7,0.8,5.4,2.2l-0.2-3.3v-7.5h3.3v28.5h-2.7l-0.3-2.3h-0.1c-1.5,1.5-3.6,2.8-5.9,2.8
		c-4.9,0-8-3.7-8-10.2C1371.5,2147.3,1375.5,2143.4,1380,2143.4z M1380.3,2161c1.8,0,3.4-0.9,5-2.7v-10.2c-1.6-1.5-3.1-2-4.7-2
		c-3.1,0-5.6,3-5.6,7.4C1374.9,2158.2,1376.9,2161,1380.3,2161z"/>
	<path class="st30" d="M1403.8,2146.5h-2.9v-2.5l3-0.2l0.4-5.4h2.8v5.4h5.2v2.7h-5.2v10.8c0,2.4,0.8,3.8,3,3.8
		c0.7,0,1.6-0.3,2.2-0.5l0.6,2.5c-1.1,0.4-2.4,0.7-3.6,0.7c-4.2,0-5.6-2.6-5.6-6.5V2146.5z"/>
	<path class="st30" d="M1423.9,2143.4c4.8,0,9,3.7,9,10.2c0,6.4-4.2,10.2-9,10.2c-4.8,0-9-3.7-9-10.2
		C1414.9,2147.1,1419.1,2143.4,1423.9,2143.4z M1423.9,2161.1c3.4,0,5.6-3,5.6-7.4c0-4.5-2.2-7.5-5.6-7.5c-3.3,0-5.6,3-5.6,7.5
		C1418.3,2158.1,1420.6,2161.1,1423.9,2161.1z"/>
	<path class="st30" d="M1446.1,2143.9h2.7l0.3,3.5h0.1c1.3-2.4,3.3-4,5.5-4c0.8,0,1.4,0.1,2.1,0.4l-0.6,2.9
		c-0.6-0.2-1.1-0.3-1.9-0.3c-1.6,0-3.6,1.2-4.9,4.5v12.5h-3.3V2143.9z"/>
	<path class="st30" d="M1459.7,2143.9h3.3v11.9c0,3.6,1.1,5.2,3.6,5.2c2,0,3.4-1,5.2-3.3v-13.8h3.3v19.4h-2.7l-0.3-3h-0.1
		c-1.8,2.1-3.7,3.5-6.4,3.5c-4.1,0-6-2.6-6-7.6V2143.9z"/>
	<path class="st30" d="M1481.7,2143.9h2.7l0.3,2.8h0.1c1.8-1.8,3.8-3.3,6.5-3.3c4.1,0,5.9,2.6,5.9,7.6v12.3h-3.3v-11.9
		c0-3.6-1.1-5.2-3.7-5.2c-2,0-3.4,1-5.3,3v14.1h-3.3V2143.9z"/>
	<path class="st30" d="M1509.4,2143.9h3.4l2.9,11.2c0.4,1.8,0.8,3.6,1.2,5.4h0.2c0.4-1.8,0.8-3.6,1.3-5.4l3-11.2h3.2l3,11.2
		c0.5,1.8,0.9,3.6,1.4,5.4h0.2c0.4-1.8,0.8-3.6,1.2-5.4l2.8-11.2h3.1l-5.2,19.4h-4l-2.8-10.4c-0.5-1.8-0.8-3.6-1.3-5.6h-0.2
		c-0.4,2-0.8,3.8-1.4,5.6l-2.7,10.4h-3.8L1509.4,2143.9z"/>
	<path class="st30" d="M1539.8,2137.7c0-1.3,1-2.1,2.3-2.1s2.3,0.8,2.3,2.1c0,1.2-1,2.1-2.3,2.1S1539.8,2139,1539.8,2137.7z
		 M1540.4,2143.9h3.3v19.4h-3.3V2143.9z"/>
	<path class="st30" d="M1550.8,2146.5h-2.9v-2.5l3-0.2l0.4-5.4h2.8v5.4h5.2v2.7h-5.2v10.8c0,2.4,0.8,3.8,3,3.8
		c0.7,0,1.6-0.3,2.2-0.5l0.6,2.5c-1.1,0.4-2.4,0.7-3.6,0.7c-4.2,0-5.6-2.6-5.6-6.5V2146.5z"/>
	<path class="st30" d="M1563.8,2134.8h3.3v7.8l-0.1,4c1.8-1.8,3.8-3.2,6.5-3.2c4.1,0,5.9,2.6,5.9,7.6v12.3h-3.3v-11.9
		c0-3.6-1.1-5.2-3.7-5.2c-2,0-3.4,1-5.3,3v14.1h-3.3V2134.8z"/>
	<path class="st30" d="M1593.8,2137.1h3.4v23.4h11.4v2.8h-14.8V2137.1z"/>
	<path class="st30" d="M1612.3,2137.7c0-1.3,1-2.1,2.3-2.1s2.3,0.8,2.3,2.1c0,1.2-1,2.1-2.3,2.1S1612.3,2139,1612.3,2137.7z
		 M1612.9,2143.9h3.3v19.4h-3.3V2143.9z"/>
	<path class="st30" d="M1624.1,2162.6v-0.2c-1-0.6-1.7-1.6-1.7-3.2c0-1.6,1.1-2.9,2.1-3.6v-0.2c-1.3-1-2.5-2.9-2.5-5.2
		c0-4.2,3.4-6.9,7.3-6.9c1.1,0,2,0.2,2.8,0.5h6.8v2.5h-4c0.9,0.9,1.6,2.4,1.6,4c0,4.2-3.2,6.8-7.1,6.8c-1,0-2-0.2-2.9-0.7
		c-0.7,0.6-1.2,1.2-1.2,2.3c0,1.2,0.8,2.1,3.4,2.1h3.8c4.5,0,6.8,1.4,6.8,4.6c0,3.6-3.8,6.7-9.8,6.7c-4.8,0-8-1.9-8-5.2
		C1621.2,2165.4,1622.3,2163.8,1624.1,2162.6z M1629.7,2170c3.7,0,6.2-1.9,6.2-4c0-1.8-1.4-2.4-3.9-2.4h-3.4c-0.8,0-1.7-0.1-2.5-0.3
		c-1.4,1-2,2.2-2,3.3C1624.1,2168.7,1626.2,2170,1629.7,2170z M1633.4,2150.3c0-2.8-1.8-4.5-4.1-4.5c-2.3,0-4.1,1.7-4.1,4.5
		s1.9,4.6,4.1,4.6C1631.5,2154.9,1633.4,2153.1,1633.4,2150.3z"/>
	<path class="st30" d="M1642.9,2134.8h3.3v7.8l-0.1,4c1.8-1.8,3.8-3.2,6.5-3.2c4.1,0,5.9,2.6,5.9,7.6v12.3h-3.3v-11.9
		c0-3.6-1.1-5.2-3.7-5.2c-2,0-3.4,1-5.3,3v14.1h-3.3V2134.8z"/>
	<path class="st30" d="M1665.2,2146.5h-2.9v-2.5l3-0.2l0.4-5.4h2.8v5.4h5.2v2.7h-5.2v10.8c0,2.4,0.8,3.8,3,3.8
		c0.7,0,1.6-0.3,2.2-0.5l0.6,2.5c-1.1,0.4-2.4,0.7-3.6,0.7c-4.2,0-5.6-2.6-5.6-6.5V2146.5z"/>
	<path class="st30" d="M1678.1,2134.8h3.3v7.8l-0.1,3.5c1.8-1.6,3.9-2.7,6.1-2.7c5,0,7.7,3.9,7.7,9.9c0,6.6-4,10.5-8.4,10.5
		c-1.8,0-3.8-0.9-5.6-2.4h-0.1l-0.3,1.9h-2.6V2134.8z M1686.2,2161c3.2,0,5.6-2.9,5.6-7.7c0-4.3-1.4-7.2-5.1-7.2
		c-1.6,0-3.4,0.9-5.2,2.6v10.2C1683.1,2160.5,1684.9,2161,1686.2,2161z"/>
	<path class="st30" d="M1707.6,2143.4c5,0,7.8,3.6,7.8,9.1c0,0.7,0,1.3-0.1,1.8h-13.1c0.2,4.2,2.8,6.8,6.5,6.8
		c1.8,0,3.4-0.6,4.8-1.5l1.2,2.2c-1.7,1.1-3.8,2-6.4,2c-5.2,0-9.3-3.8-9.3-10.2C1698.9,2147.3,1703.2,2143.4,1707.6,2143.4z
		 M1712.5,2152.1c0-4-1.8-6.2-4.8-6.2c-2.7,0-5.2,2.2-5.6,6.2H1712.5z"/>
	<path class="st30" d="M1720.2,2143.9h2.7l0.3,2.8h0.1c1.8-1.8,3.8-3.3,6.5-3.3c4.1,0,5.9,2.6,5.9,7.6v12.3h-3.3v-11.9
		c0-3.6-1.1-5.2-3.7-5.2c-2,0-3.4,1-5.3,3v14.1h-3.3V2143.9z"/>
	<path class="st30" d="M1749.1,2143.4c2.2,0,3.7,0.8,5.4,2.2l-0.2-3.3v-7.5h3.3v28.5h-2.7l-0.3-2.3h-0.1c-1.5,1.5-3.6,2.8-5.9,2.8
		c-4.9,0-8-3.7-8-10.2C1740.7,2147.3,1744.6,2143.4,1749.1,2143.4z M1749.4,2161c1.8,0,3.4-0.9,5-2.7v-10.2c-1.6-1.5-3.1-2-4.7-2
		c-3.1,0-5.6,3-5.6,7.4C1744,2158.2,1746,2161,1749.4,2161z"/>
	<path class="st30" d="M1786.9,2163.3l-6.3-11.1h-4.7v11.1h-3.4v-26.2h8.2c5.3,0,9.2,1.9,9.2,7.4c0,4.1-2.3,6.5-5.9,7.4l6.7,11.4
		H1786.9z M1775.9,2149.5h4.4c4.1,0,6.3-1.7,6.3-5.1c0-3.4-2.2-4.7-6.3-4.7h-4.4V2149.5z"/>
	<path class="st30" d="M1802.2,2143.4c5,0,7.8,3.6,7.8,9.1c0,0.7,0,1.3-0.1,1.8h-13.1c0.2,4.2,2.8,6.8,6.5,6.8
		c1.8,0,3.4-0.6,4.8-1.5l1.2,2.2c-1.7,1.1-3.8,2-6.4,2c-5.2,0-9.3-3.8-9.3-10.2C1793.5,2147.3,1797.8,2143.4,1802.2,2143.4z
		 M1807.1,2152.1c0-4-1.8-6.2-4.8-6.2c-2.7,0-5.2,2.2-5.6,6.2H1807.1z"/>
	<path class="st30" d="M1825.2,2151c0-2.5-0.8-4.9-4-4.9c-2.3,0-4.3,1-5.8,2.1l-1.3-2.3c1.8-1.2,4.5-2.5,7.6-2.5
		c4.8,0,6.8,3.2,6.8,8v11.9h-2.7l-0.3-2.3h-0.1c-1.9,1.5-4,2.8-6.4,2.8c-3.3,0-5.7-2-5.7-5.5C1813.3,2154,1817,2151.9,1825.2,2151z
		 M1819.9,2161.1c1.9,0,3.4-0.9,5.3-2.6v-5.4c-6.5,0.8-8.7,2.4-8.7,4.9C1816.5,2160.2,1818,2161.1,1819.9,2161.1z"/>
	<path class="st30" d="M1842.6,2143.4c2.6,0,4.4,1.1,5.7,2.3l-1.6,2.1c-1.2-1-2.4-1.7-3.9-1.7c-3.5,0-6.1,3-6.1,7.5
		c0,4.4,2.4,7.4,6,7.4c1.8,0,3.4-0.9,4.6-2l1.5,2.2c-1.8,1.6-4,2.5-6.3,2.5c-5.2,0-9.1-3.7-9.1-10.2
		C1833.3,2147.1,1837.6,2143.4,1842.6,2143.4z"/>
	<path class="st30" d="M1853.5,2146.5h-2.9v-2.5l3-0.2l0.4-5.4h2.8v5.4h5.2v2.7h-5.2v10.8c0,2.4,0.8,3.8,3,3.8
		c0.7,0,1.6-0.3,2.2-0.5l0.6,2.5c-1.1,0.4-2.4,0.7-3.6,0.7c-4.2,0-5.6-2.6-5.6-6.5V2146.5z"/>
	<path class="st30" d="M1865.9,2137.7c0-1.3,1-2.1,2.3-2.1s2.3,0.8,2.3,2.1c0,1.2-1,2.1-2.3,2.1S1865.9,2139,1865.9,2137.7z
		 M1866.5,2143.9h3.3v19.4h-3.3V2143.9z"/>
	<path class="st30" d="M1873.5,2143.9h3.4l3.7,11c0.6,1.9,1.2,3.9,1.8,5.7h0.2c0.6-1.8,1.2-3.8,1.8-5.7l3.7-11h3.2l-6.9,19.4h-3.8
		L1873.5,2143.9z"/>
	<path class="st30" d="M1902.1,2143.4c5,0,7.8,3.6,7.8,9.1c0,0.7,0,1.3-0.1,1.8h-13.1c0.2,4.2,2.8,6.8,6.5,6.8
		c1.8,0,3.4-0.6,4.8-1.5l1.2,2.2c-1.7,1.1-3.8,2-6.4,2c-5.2,0-9.3-3.8-9.3-10.2C1893.4,2147.3,1897.7,2143.4,1902.1,2143.4z
		 M1907,2152.1c0-4-1.8-6.2-4.8-6.2c-2.7,0-5.2,2.2-5.6,6.2H1907z"/>
	<path class="st30" d="M1923,2137.1h8.1c5.8,0,9.7,2,9.7,7.7c0,5.5-4,8.1-9.7,8.1h-4.7v10.4h-3.4V2137.1z M1930.6,2150.2
		c4.6,0,6.8-1.7,6.8-5.4c0-3.8-2.3-5-6.8-5h-4.3v10.4H1930.6z"/>
	<path class="st30" d="M1945.6,2134.8h3.3v24.8c0,1,0.4,1.4,0.9,1.4c0.2,0,0.4,0,0.7-0.1l0.4,2.5c-0.4,0.2-1,0.3-1.9,0.3
		c-2.5,0-3.5-1.6-3.5-4.4V2134.8z"/>
	<path class="st30" d="M1966.8,2151c0-2.5-0.8-4.9-4-4.9c-2.3,0-4.3,1-5.8,2.1l-1.3-2.3c1.8-1.2,4.5-2.5,7.6-2.5
		c4.8,0,6.8,3.2,6.8,8v11.9h-2.7l-0.3-2.3h-0.1c-1.9,1.5-4,2.8-6.4,2.8c-3.3,0-5.7-2-5.7-5.5C1954.8,2154,1958.5,2151.9,1966.8,2151
		z M1961.5,2161.1c1.9,0,3.4-0.9,5.3-2.6v-5.4c-6.5,0.8-8.7,2.4-8.7,4.9C1958.1,2160.2,1959.6,2161.1,1961.5,2161.1z"/>
	<path class="st30" d="M1976.8,2146.5h-2.9v-2.5l3-0.2l0.4-5.4h2.8v5.4h5.2v2.7h-5.2v10.8c0,2.4,0.8,3.8,3,3.8
		c0.7,0,1.6-0.3,2.2-0.5l0.6,2.5c-1.1,0.4-2.4,0.7-3.6,0.7c-4.2,0-5.6-2.6-5.6-6.5V2146.5z"/>
	<path class="st30" d="M1998.6,2137.5c-0.7-0.3-1.5-0.5-2.2-0.5c-1.8,0-2.7,1.3-2.7,3.8v3.1h4.1v2.7h-4.1v16.8h-3.3v-16.8h-2.6v-2.5
		l2.6-0.2v-3.1c0-4,1.8-6.4,5.7-6.4c1.2,0,2.4,0.3,3.2,0.6L1998.6,2137.5z"/>
	<path class="st30" d="M2008.6,2143.4c4.8,0,9,3.7,9,10.2c0,6.4-4.2,10.2-9,10.2c-4.8,0-9-3.7-9-10.2
		C1999.6,2147.1,2003.9,2143.4,2008.6,2143.4z M2008.6,2161.1c3.4,0,5.6-3,5.6-7.4c0-4.5-2.2-7.5-5.6-7.5c-3.3,0-5.6,3-5.6,7.5
		C2003,2158.1,2005.3,2161.1,2008.6,2161.1z"/>
	<path class="st30" d="M2022.8,2143.9h2.7l0.3,3.5h0.1c1.3-2.4,3.3-4,5.5-4c0.8,0,1.4,0.1,2.1,0.4l-0.6,2.9
		c-0.6-0.2-1.1-0.3-1.9-0.3c-1.6,0-3.6,1.2-4.9,4.5v12.5h-3.3V2143.9z"/>
	<path class="st30" d="M2036.6,2143.9h2.7l0.3,2.8h0.1c1.7-1.8,3.7-3.3,6-3.3c3,0,4.6,1.4,5.4,3.7c2-2.2,4-3.7,6.4-3.7
		c4,0,5.9,2.6,5.9,7.6v12.3h-3.3v-11.9c0-3.6-1.2-5.2-3.6-5.2c-1.5,0-3.1,1-4.9,3v14.1h-3.3v-11.9c0-3.6-1.2-5.2-3.6-5.2
		c-1.4,0-3.1,1-4.9,3v14.1h-3.3V2143.9z"/>
	<path class="st30" d="M2088.9,2151c0-2.5-0.8-4.9-4-4.9c-2.3,0-4.3,1-5.8,2.1l-1.3-2.3c1.8-1.2,4.5-2.5,7.6-2.5
		c4.8,0,6.8,3.2,6.8,8v11.9h-2.7l-0.3-2.3h-0.1c-1.9,1.5-4,2.8-6.4,2.8c-3.3,0-5.7-2-5.7-5.5C2076.9,2154,2080.6,2151.9,2088.9,2151
		z M2083.6,2161.1c1.9,0,3.4-0.9,5.3-2.6v-5.4c-6.5,0.8-8.7,2.4-8.7,4.9C2080.2,2160.2,2081.6,2161.1,2083.6,2161.1z"/>
	<path class="st30" d="M2098.4,2143.9h2.7l0.3,2.8h0.1c1.8-1.8,3.8-3.3,6.5-3.3c4.1,0,5.9,2.6,5.9,7.6v12.3h-3.3v-11.9
		c0-3.6-1.1-5.2-3.7-5.2c-2,0-3.4,1-5.3,3v14.1h-3.3V2143.9z"/>
	<path class="st30" d="M2127.3,2143.4c2.2,0,3.7,0.8,5.4,2.2l-0.2-3.3v-7.5h3.3v28.5h-2.7l-0.3-2.3h-0.1c-1.5,1.5-3.6,2.8-5.9,2.8
		c-4.9,0-8-3.7-8-10.2C2118.8,2147.3,2122.8,2143.4,2127.3,2143.4z M2127.6,2161c1.8,0,3.4-0.9,5-2.7v-10.2c-1.6-1.5-3.1-2-4.7-2
		c-3.1,0-5.6,3-5.6,7.4C2122.2,2158.2,2124.2,2161,2127.6,2161z"/>
	<path class="st30" d="M2161.5,2151c0-2.5-0.8-4.9-4-4.9c-2.3,0-4.3,1-5.8,2.1l-1.3-2.3c1.8-1.2,4.5-2.5,7.6-2.5
		c4.8,0,6.8,3.2,6.8,8v11.9h-2.7l-0.3-2.3h-0.1c-1.9,1.5-4,2.8-6.4,2.8c-3.3,0-5.7-2-5.7-5.5C2149.6,2154,2153.2,2151.9,2161.5,2151
		z M2156.2,2161.1c1.9,0,3.4-0.9,5.3-2.6v-5.4c-6.5,0.8-8.7,2.4-8.7,4.9C2152.8,2160.2,2154.3,2161.1,2156.2,2161.1z"/>
	<path class="st30" d="M2171,2134.8h3.3v24.8c0,1,0.4,1.4,0.9,1.4c0.2,0,0.4,0,0.7-0.1l0.4,2.5c-0.4,0.2-1,0.3-1.9,0.3
		c-2.5,0-3.5-1.6-3.5-4.4V2134.8z"/>
	<path class="st30" d="M2188.8,2143.4c4.8,0,9,3.7,9,10.2c0,6.4-4.2,10.2-9,10.2c-4.8,0-9-3.7-9-10.2
		C2179.8,2147.1,2184,2143.4,2188.8,2143.4z M2188.8,2161.1c3.4,0,5.6-3,5.6-7.4c0-4.5-2.2-7.5-5.6-7.5c-3.3,0-5.6,3-5.6,7.5
		C2183.2,2158.1,2185.4,2161.1,2188.8,2161.1z"/>
	<path class="st30" d="M2202.9,2143.9h2.7l0.3,2.8h0.1c1.8-1.8,3.8-3.3,6.5-3.3c4.1,0,5.9,2.6,5.9,7.6v12.3h-3.3v-11.9
		c0-3.6-1.1-5.2-3.7-5.2c-2,0-3.4,1-5.3,3v14.1h-3.3V2143.9z"/>
	<path class="st30" d="M2226.1,2162.6v-0.2c-1-0.6-1.7-1.6-1.7-3.2c0-1.6,1.1-2.9,2.1-3.6v-0.2c-1.3-1-2.5-2.9-2.5-5.2
		c0-4.2,3.4-6.9,7.3-6.9c1.1,0,2,0.2,2.8,0.5h6.8v2.5h-4c0.9,0.9,1.6,2.4,1.6,4c0,4.2-3.2,6.8-7.1,6.8c-1,0-2-0.2-2.9-0.7
		c-0.7,0.6-1.2,1.2-1.2,2.3c0,1.2,0.8,2.1,3.4,2.1h3.8c4.5,0,6.8,1.4,6.8,4.6c0,3.6-3.8,6.7-9.8,6.7c-4.8,0-8-1.9-8-5.2
		C2223.3,2165.4,2224.4,2163.8,2226.1,2162.6z M2231.8,2170c3.7,0,6.2-1.9,6.2-4c0-1.8-1.4-2.4-3.9-2.4h-3.4c-0.8,0-1.7-0.1-2.5-0.3
		c-1.4,1-2,2.2-2,3.3C2226.2,2168.7,2228.3,2170,2231.8,2170z M2235.4,2150.3c0-2.8-1.8-4.5-4.1-4.5c-2.3,0-4.1,1.7-4.1,4.5
		s1.9,4.6,4.1,4.6C2233.6,2154.9,2235.4,2153.1,2235.4,2150.3z"/>
	<path class="st30" d="M2244.4,2158.9c1.7,1.4,3.4,2.3,5.7,2.3c2.6,0,3.8-1.4,3.8-3c0-2-2.3-2.9-4.4-3.7c-2.8-1-5.8-2.3-5.8-5.6
		c0-3.1,2.5-5.5,6.7-5.5c2.4,0,4.6,1,6,2.2l-1.6,2.1c-1.3-1-2.7-1.7-4.4-1.7c-2.4,0-3.6,1.3-3.6,2.8c0,1.8,2.1,2.5,4.3,3.4
		c2.8,1,5.9,2.2,5.9,5.9c0,3.2-2.5,5.8-7.1,5.8c-2.8,0-5.4-1.2-7.2-2.7L2244.4,2158.9z"/>
	<path class="st30" d="M2261.1,2137.7c0-1.3,1-2.1,2.3-2.1c1.3,0,2.3,0.8,2.3,2.1c0,1.2-1,2.1-2.3,2.1
		C2262.1,2139.9,2261.1,2139,2261.1,2137.7z M2261.7,2143.9h3.3v19.4h-3.3V2143.9z"/>
	<path class="st30" d="M2278.6,2143.4c2.2,0,3.7,0.8,5.4,2.2l-0.2-3.3v-7.5h3.3v28.5h-2.7l-0.3-2.3h-0.1c-1.5,1.5-3.6,2.8-5.9,2.8
		c-4.9,0-8-3.7-8-10.2C2270.1,2147.3,2274.1,2143.4,2278.6,2143.4z M2278.9,2161c1.8,0,3.4-0.9,5-2.7v-10.2c-1.6-1.5-3.1-2-4.7-2
		c-3.1,0-5.6,3-5.6,7.4C2273.5,2158.2,2275.5,2161,2278.9,2161z"/>
	<path class="st30" d="M2301,2143.4c5,0,7.8,3.6,7.8,9.1c0,0.7,0,1.3-0.1,1.8h-13.1c0.2,4.2,2.8,6.8,6.5,6.8c1.8,0,3.4-0.6,4.8-1.5
		l1.2,2.2c-1.7,1.1-3.8,2-6.4,2c-5.2,0-9.3-3.8-9.3-10.2C2292.3,2147.3,2296.6,2143.4,2301,2143.4z M2305.9,2152.1
		c0-4-1.8-6.2-4.8-6.2c-2.7,0-5.2,2.2-5.6,6.2H2305.9z"/>
	<path class="st30" d="M2321.8,2168.9c2.2,0,3.6-1.8,4.4-4.2l0.4-1.4l-7.8-19.5h3.4l4,10.8c0.6,1.7,1.3,3.7,1.9,5.5h0.2
		c0.6-1.8,1.1-3.8,1.6-5.5l3.5-10.8h3.2l-7.3,21c-1.4,3.8-3.4,6.8-7.3,6.8c-0.9,0-1.6-0.2-2.3-0.4l0.6-2.6
		C2320.7,2168.8,2321.3,2168.9,2321.8,2168.9z"/>
	<path class="st30" d="M2347.7,2143.4c4.8,0,9,3.7,9,10.2c0,6.4-4.2,10.2-9,10.2c-4.8,0-9-3.7-9-10.2
		C2338.7,2147.1,2343,2143.4,2347.7,2143.4z M2347.7,2161.1c3.4,0,5.6-3,5.6-7.4c0-4.5-2.2-7.5-5.6-7.5c-3.3,0-5.6,3-5.6,7.5
		C2342.1,2158.1,2344.4,2161.1,2347.7,2161.1z"/>
	<path class="st30" d="M2361.6,2143.9h3.3v11.9c0,3.6,1.1,5.2,3.6,5.2c2,0,3.4-1,5.2-3.3v-13.8h3.3v19.4h-2.7l-0.3-3h-0.1
		c-1.8,2.1-3.7,3.5-6.4,3.5c-4.1,0-6-2.6-6-7.6V2143.9z"/>
	<path class="st30" d="M2383.6,2143.9h2.7l0.3,3.5h0.1c1.3-2.4,3.3-4,5.5-4c0.8,0,1.4,0.1,2.1,0.4l-0.6,2.9
		c-0.6-0.2-1.1-0.3-1.9-0.3c-1.6,0-3.6,1.2-4.9,4.5v12.5h-3.3V2143.9z"/>
	<path class="st30" d="M951.4,2191.4c5,0,7.8,3.6,7.8,9.1c0,0.7,0,1.3-0.1,1.8h-13.1c0.2,4.2,2.8,6.8,6.5,6.8c1.8,0,3.4-0.6,4.8-1.5
		l1.2,2.2c-1.7,1.1-3.8,2-6.4,2c-5.2,0-9.3-3.8-9.3-10.2C942.7,2195.3,946.9,2191.4,951.4,2191.4z M956.3,2200.1
		c0-4-1.8-6.2-4.8-6.2c-2.7,0-5.2,2.2-5.6,6.2H956.3z"/>
	<path class="st30" d="M967.3,2201.1l-5.9-9.3h3.6l2.6,4.3c0.6,1,1.2,2.2,1.9,3.2h0.2c0.6-1.1,1.2-2.2,1.8-3.2l2.4-4.3h3.4l-5.9,9.6
		l6.3,9.8h-3.6l-2.8-4.5c-0.7-1.2-1.4-2.4-2.1-3.5H969c-0.7,1.1-1.3,2.3-2,3.5l-2.6,4.5h-3.4L967.3,2201.1z"/>
	<path class="st30" d="M980.9,2185.7c0-1.3,1-2.1,2.3-2.1s2.3,0.8,2.3,2.1c0,1.2-1,2.1-2.3,2.1S980.9,2187,980.9,2185.7z
		 M981.5,2191.9h3.3v19.4h-3.3V2191.9z"/>
	<path class="st30" d="M990.8,2206.9c1.7,1.4,3.4,2.3,5.7,2.3c2.6,0,3.8-1.4,3.8-3c0-2-2.3-2.9-4.4-3.7c-2.8-1-5.8-2.3-5.8-5.6
		c0-3.1,2.5-5.5,6.7-5.5c2.4,0,4.6,1,6,2.2l-1.6,2.1c-1.3-1-2.7-1.7-4.4-1.7c-2.4,0-3.6,1.3-3.6,2.8c0,1.8,2.1,2.5,4.3,3.4
		c2.8,1,5.9,2.2,5.9,5.9c0,3.2-2.5,5.8-7.1,5.8c-2.8,0-5.4-1.2-7.2-2.7L990.8,2206.9z"/>
	<path class="st30" d="M1008.7,2194.5h-2.9v-2.5l3-0.2l0.4-5.4h2.8v5.4h5.2v2.7h-5.2v10.8c0,2.4,0.8,3.8,3,3.8
		c0.7,0,1.6-0.3,2.2-0.5l0.6,2.5c-1.1,0.4-2.4,0.7-3.6,0.7c-4.2,0-5.6-2.6-5.6-6.5V2194.5z"/>
	<path class="st30" d="M1021,2185.7c0-1.3,1-2.1,2.3-2.1s2.3,0.8,2.3,2.1c0,1.2-1,2.1-2.3,2.1S1021,2187,1021,2185.7z
		 M1021.6,2191.9h3.3v19.4h-3.3V2191.9z"/>
	<path class="st30" d="M1031.5,2191.9h2.7l0.3,2.8h0.1c1.8-1.8,3.8-3.3,6.5-3.3c4.1,0,5.9,2.6,5.9,7.6v12.3h-3.3v-11.9
		c0-3.6-1.1-5.2-3.7-5.2c-2,0-3.4,1-5.3,3v14.1h-3.3V2191.9z"/>
	<path class="st30" d="M1054.7,2210.6v-0.2c-1-0.6-1.7-1.6-1.7-3.2c0-1.6,1.1-2.9,2.1-3.6v-0.2c-1.3-1-2.5-2.9-2.5-5.2
		c0-4.2,3.4-6.9,7.3-6.9c1.1,0,2,0.2,2.8,0.5h6.8v2.5h-4c0.9,0.9,1.6,2.4,1.6,4c0,4.2-3.2,6.8-7.1,6.8c-1,0-2-0.2-2.9-0.7
		c-0.7,0.6-1.2,1.2-1.2,2.3c0,1.2,0.8,2.1,3.4,2.1h3.8c4.5,0,6.8,1.4,6.8,4.6c0,3.6-3.8,6.7-9.8,6.7c-4.8,0-8-1.9-8-5.2
		C1051.9,2213.4,1052.9,2211.8,1054.7,2210.6z M1060.4,2218c3.7,0,6.2-1.9,6.2-4c0-1.8-1.4-2.4-3.9-2.4h-3.4c-0.8,0-1.7-0.1-2.5-0.3
		c-1.4,1-2,2.2-2,3.3C1054.7,2216.7,1056.9,2218,1060.4,2218z M1064,2198.3c0-2.8-1.8-4.5-4.1-4.5s-4.1,1.7-4.1,4.5s1.9,4.6,4.1,4.6
		S1064,2201.1,1064,2198.3z"/>
	<path class="st30" d="M1082.1,2194.5h-2.9v-2.5l3-0.2l0.4-5.4h2.8v5.4h5.2v2.7h-5.2v10.8c0,2.4,0.8,3.8,3,3.8
		c0.7,0,1.6-0.3,2.2-0.5l0.6,2.5c-1.1,0.4-2.4,0.7-3.6,0.7c-4.2,0-5.6-2.6-5.6-6.5V2194.5z"/>
	<path class="st30" d="M1102,2191.4c5,0,7.8,3.6,7.8,9.1c0,0.7,0,1.3-0.1,1.8h-13.1c0.2,4.2,2.8,6.8,6.5,6.8c1.8,0,3.4-0.6,4.8-1.5
		l1.2,2.2c-1.7,1.1-3.8,2-6.4,2c-5.2,0-9.3-3.8-9.3-10.2C1093.3,2195.3,1097.5,2191.4,1102,2191.4z M1106.9,2200.1
		c0-4-1.8-6.2-4.8-6.2c-2.7,0-5.2,2.2-5.6,6.2H1106.9z"/>
	<path class="st30" d="M1122.5,2191.4c2.6,0,4.4,1.1,5.7,2.3l-1.6,2.1c-1.2-1-2.4-1.7-3.9-1.7c-3.5,0-6.1,3-6.1,7.5
		c0,4.4,2.4,7.4,6,7.4c1.8,0,3.4-0.9,4.6-2l1.5,2.2c-1.8,1.6-4,2.5-6.3,2.5c-5.2,0-9.1-3.7-9.1-10.2
		C1113.1,2195.1,1117.5,2191.4,1122.5,2191.4z"/>
	<path class="st30" d="M1132.8,2182.8h3.3v7.8l-0.1,4c1.8-1.8,3.8-3.2,6.5-3.2c4.1,0,5.9,2.6,5.9,7.6v12.3h-3.3v-11.9
		c0-3.6-1.1-5.2-3.7-5.2c-2,0-3.4,1-5.3,3v14.1h-3.3V2182.8z"/>
	<path class="st30" d="M1154.5,2191.9h2.7l0.3,2.8h0.1c1.8-1.8,3.8-3.3,6.5-3.3c4.1,0,5.9,2.6,5.9,7.6v12.3h-3.3v-11.9
		c0-3.6-1.1-5.2-3.7-5.2c-2,0-3.4,1-5.3,3v14.1h-3.3V2191.9z"/>
	<path class="st30" d="M1184,2191.4c4.8,0,9,3.7,9,10.2c0,6.4-4.2,10.2-9,10.2c-4.8,0-9-3.7-9-10.2
		C1175,2195.1,1179.2,2191.4,1184,2191.4z M1184,2209.1c3.4,0,5.6-3,5.6-7.4c0-4.5-2.2-7.5-5.6-7.5c-3.3,0-5.6,3-5.6,7.5
		C1178.4,2206.1,1180.7,2209.1,1184,2209.1z"/>
	<path class="st30" d="M1198.1,2182.8h3.3v24.8c0,1,0.4,1.4,0.9,1.4c0.2,0,0.4,0,0.7-0.1l0.4,2.5c-0.4,0.2-1,0.3-1.9,0.3
		c-2.5,0-3.5-1.6-3.5-4.4V2182.8z"/>
	<path class="st30" d="M1215.9,2191.4c4.8,0,9,3.7,9,10.2c0,6.4-4.2,10.2-9,10.2c-4.8,0-9-3.7-9-10.2
		C1206.9,2195.1,1211.1,2191.4,1215.9,2191.4z M1215.9,2209.1c3.4,0,5.6-3,5.6-7.4c0-4.5-2.2-7.5-5.6-7.5c-3.3,0-5.6,3-5.6,7.5
		C1210.3,2206.1,1212.5,2209.1,1215.9,2209.1z"/>
	<path class="st30" d="M1231.3,2210.6v-0.2c-1-0.6-1.7-1.6-1.7-3.2c0-1.6,1.1-2.9,2.1-3.6v-0.2c-1.3-1-2.5-2.9-2.5-5.2
		c0-4.2,3.4-6.9,7.3-6.9c1.1,0,2,0.2,2.8,0.5h6.8v2.5h-4c0.9,0.9,1.6,2.4,1.6,4c0,4.2-3.2,6.8-7.1,6.8c-1,0-2-0.2-2.9-0.7
		c-0.7,0.6-1.2,1.2-1.2,2.3c0,1.2,0.8,2.1,3.4,2.1h3.8c4.5,0,6.8,1.4,6.8,4.6c0,3.6-3.8,6.7-9.8,6.7c-4.8,0-8-1.9-8-5.2
		C1228.5,2213.4,1229.6,2211.8,1231.3,2210.6z M1237,2218c3.7,0,6.2-1.9,6.2-4c0-1.8-1.4-2.4-3.9-2.4h-3.4c-0.8,0-1.7-0.1-2.5-0.3
		c-1.4,1-2,2.2-2,3.3C1231.4,2216.7,1233.5,2218,1237,2218z M1240.7,2198.3c0-2.8-1.8-4.5-4.1-4.5s-4.1,1.7-4.1,4.5s1.9,4.6,4.1,4.6
		S1240.7,2201.1,1240.7,2198.3z"/>
	<path class="st30" d="M1249.5,2185.7c0-1.3,1-2.1,2.3-2.1s2.3,0.8,2.3,2.1c0,1.2-1,2.1-2.3,2.1S1249.5,2187,1249.5,2185.7z
		 M1250.1,2191.9h3.3v19.4h-3.3V2191.9z"/>
	<path class="st30" d="M1267.3,2191.4c5,0,7.8,3.6,7.8,9.1c0,0.7,0,1.3-0.1,1.8h-13.1c0.2,4.2,2.8,6.8,6.5,6.8
		c1.8,0,3.4-0.6,4.8-1.5l1.2,2.2c-1.7,1.1-3.8,2-6.4,2c-5.2,0-9.3-3.8-9.3-10.2C1258.5,2195.3,1262.8,2191.4,1267.3,2191.4z
		 M1272.1,2200.1c0-4-1.8-6.2-4.8-6.2c-2.7,0-5.2,2.2-5.6,6.2H1272.1z"/>
	<path class="st30" d="M1279.3,2206.9c1.7,1.4,3.4,2.3,5.7,2.3c2.6,0,3.8-1.4,3.8-3c0-2-2.3-2.9-4.4-3.7c-2.8-1-5.8-2.3-5.8-5.6
		c0-3.1,2.5-5.5,6.7-5.5c2.4,0,4.6,1,6,2.2l-1.6,2.1c-1.3-1-2.7-1.7-4.4-1.7c-2.4,0-3.6,1.3-3.6,2.8c0,1.8,2.1,2.5,4.3,3.4
		c2.8,1,5.9,2.2,5.9,5.9c0,3.2-2.5,5.8-7.1,5.8c-2.8,0-5.4-1.2-7.2-2.7L1279.3,2206.9z"/>
	<path class="st30" d="M1304.7,2200.2c0-7,2-12.8,5.3-18.2l2,1c-3.1,5.1-4.6,11.1-4.6,17.2c0,6.1,1.5,12.1,4.6,17.2l-2,1
		C1306.6,2213,1304.7,2207.2,1304.7,2200.2z"/>
	<path class="st30" d="M1324.1,2191.4c5,0,7.8,3.6,7.8,9.1c0,0.7,0,1.3-0.1,1.8h-13.1c0.2,4.2,2.8,6.8,6.5,6.8
		c1.8,0,3.4-0.6,4.8-1.5l1.2,2.2c-1.7,1.1-3.8,2-6.4,2c-5.2,0-9.3-3.8-9.3-10.2C1315.3,2195.3,1319.6,2191.4,1324.1,2191.4z
		 M1328.9,2200.1c0-4-1.8-6.2-4.8-6.2c-2.7,0-5.2,2.2-5.6,6.2H1328.9z"/>
	<path class="st30" d="M1338.3,2206.7c1.3,0,2.4,1,2.4,2.6c0,1.4-1.1,2.5-2.4,2.5c-1.3,0-2.4-1-2.4-2.5
		C1335.9,2207.8,1337,2206.7,1338.3,2206.7z"/>
	<path class="st30" d="M1347.9,2210.6v-0.2c-1-0.6-1.7-1.6-1.7-3.2c0-1.6,1.1-2.9,2.1-3.6v-0.2c-1.3-1-2.5-2.9-2.5-5.2
		c0-4.2,3.4-6.9,7.3-6.9c1.1,0,2,0.2,2.8,0.5h6.8v2.5h-4c0.9,0.9,1.6,2.4,1.6,4c0,4.2-3.2,6.8-7.1,6.8c-1,0-2-0.2-2.9-0.7
		c-0.7,0.6-1.2,1.2-1.2,2.3c0,1.2,0.8,2.1,3.4,2.1h3.8c4.5,0,6.8,1.4,6.8,4.6c0,3.6-3.8,6.7-9.8,6.7c-4.8,0-8-1.9-8-5.2
		C1345.1,2213.4,1346.2,2211.8,1347.9,2210.6z M1353.6,2218c3.7,0,6.2-1.9,6.2-4c0-1.8-1.4-2.4-3.9-2.4h-3.4c-0.8,0-1.7-0.1-2.5-0.3
		c-1.4,1-2,2.2-2,3.3C1348,2216.7,1350.1,2218,1353.6,2218z M1357.3,2198.3c0-2.8-1.8-4.5-4.1-4.5s-4.1,1.7-4.1,4.5s1.9,4.6,4.1,4.6
		S1357.3,2201.1,1357.3,2198.3z"/>
	<path class="st30" d="M1368.5,2206.7c1.3,0,2.4,1,2.4,2.6c0,1.4-1.1,2.5-2.4,2.5c-1.3,0-2.4-1-2.4-2.5
		C1366.1,2207.8,1367.1,2206.7,1368.5,2206.7z"/>
	<path class="st30" d="M1397,2203.3h-9.6l-2.5,8h-3.4l8.9-26.2h3.8l8.9,26.2h-3.5L1397,2203.3z M1396.1,2200.6l-1.2-4
		c-0.9-2.9-1.8-5.8-2.6-8.8h-0.2c-0.8,3-1.7,5.9-2.6,8.8l-1.3,4H1396.1z"/>
	<path class="st30" d="M1406.3,2191.9h2.7l0.3,2.8h0.1c1.7-1.8,3.7-3.3,6-3.3c3,0,4.6,1.4,5.4,3.7c2-2.2,4-3.7,6.4-3.7
		c4,0,5.9,2.6,5.9,7.6v12.3h-3.3v-11.9c0-3.6-1.2-5.2-3.6-5.2c-1.5,0-3.1,1-4.9,3v14.1h-3.3v-11.9c0-3.6-1.2-5.2-3.6-5.2
		c-1.4,0-3.1,1-4.9,3v14.1h-3.3V2191.9z"/>
	<path class="st30" d="M1450.5,2199c0-2.5-0.8-4.9-4-4.9c-2.3,0-4.3,1-5.8,2.1l-1.3-2.3c1.8-1.2,4.5-2.5,7.6-2.5
		c4.8,0,6.8,3.2,6.8,8v11.9h-2.7l-0.3-2.3h-0.1c-1.9,1.5-4,2.8-6.4,2.8c-3.3,0-5.7-2-5.7-5.5C1438.5,2202,1442.2,2199.9,1450.5,2199
		z M1445.1,2209.1c1.9,0,3.4-0.9,5.3-2.6v-5.4c-6.5,0.8-8.7,2.4-8.7,4.9C1441.7,2208.2,1443.2,2209.1,1445.1,2209.1z"/>
	<path class="st30" d="M1457.9,2209.5l10.2-15h-9.1v-2.7h13.3v1.8l-10.2,15h10.6v2.7h-14.7V2209.5z"/>
	<path class="st30" d="M1484.1,2191.4c4.8,0,9,3.7,9,10.2c0,6.4-4.2,10.2-9,10.2c-4.8,0-9-3.7-9-10.2
		C1475.1,2195.1,1479.3,2191.4,1484.1,2191.4z M1484.1,2209.1c3.4,0,5.6-3,5.6-7.4c0-4.5-2.2-7.5-5.6-7.5c-3.3,0-5.6,3-5.6,7.5
		C1478.5,2206.1,1480.8,2209.1,1484.1,2209.1z"/>
	<path class="st30" d="M1498.2,2191.9h2.7l0.3,2.8h0.1c1.8-1.8,3.8-3.3,6.5-3.3c4.1,0,5.9,2.6,5.9,7.6v12.3h-3.3v-11.9
		c0-3.6-1.1-5.2-3.7-5.2c-2,0-3.4,1-5.3,3v14.1h-3.3V2191.9z"/>
	<path class="st30" d="M1528.4,2185.1h15.1v2.8h-11.8v8.2h9.9v2.8h-9.9v9.5h12.2v2.8h-15.5V2185.1z"/>
	<path class="st30" d="M1559.5,2184.6c3.1,0,5.6,1.5,7.2,3.2l-1.9,2.1c-1.4-1.5-3.1-2.4-5.2-2.4c-5,0-8.3,4.1-8.3,10.6
		c0,6.6,3.2,10.8,8.2,10.8c2.5,0,4.3-1,6-2.9l1.9,2c-2,2.4-4.6,3.8-8,3.8c-6.6,0-11.5-5-11.5-13.6
		C1547.7,2189.7,1552.7,2184.6,1559.5,2184.6z"/>
	<path class="st30" d="M1570,2209.3c7.7-7.6,12-12.2,12-16.4c0-2.9-1.6-5-4.8-5c-2.1,0-4,1.4-5.4,3.1l-1.9-1.9
		c2.1-2.3,4.4-3.9,7.7-3.9c4.7,0,7.6,3,7.6,7.5c0,4.8-4.4,9.6-10.4,15.9c1.4-0.1,3-0.2,4.3-0.2h7.4v2.8H1570V2209.3z"/>
	<path class="st30" d="M1590.2,2216.2c2.2-1,3.6-2.7,3.6-4.9c-0.1,0-0.3,0-0.4,0c-1.3,0-2.4-0.8-2.4-2.3c0-1.4,1.1-2.3,2.4-2.3
		c1.7,0,2.8,1.5,2.8,3.9c0,3.4-2,6.1-5.2,7.5L1590.2,2216.2z"/>
	<path class="st30" d="M1609.8,2185.1h6.6c8.1,0,12.4,4.7,12.4,13c0,8.4-4.3,13.2-12.2,13.2h-6.7V2185.1z M1616.1,2208.6
		c6.2,0,9.2-3.9,9.2-10.5c0-6.6-3-10.3-9.2-10.3h-3v20.8H1616.1z"/>
	<path class="st30" d="M1641.7,2191.4c4.8,0,9,3.7,9,10.2c0,6.4-4.2,10.2-9,10.2c-4.8,0-9-3.7-9-10.2
		C1632.7,2195.1,1636.9,2191.4,1641.7,2191.4z M1641.7,2209.1c3.4,0,5.6-3,5.6-7.4c0-4.5-2.2-7.5-5.6-7.5c-3.3,0-5.6,3-5.6,7.5
		C1636.1,2206.1,1638.3,2209.1,1641.7,2209.1z"/>
	<path class="st30" d="M1663.7,2191.4c2.6,0,4.4,1.1,5.7,2.3l-1.6,2.1c-1.2-1-2.4-1.7-3.9-1.7c-3.5,0-6.1,3-6.1,7.5
		c0,4.4,2.4,7.4,6,7.4c1.8,0,3.4-0.9,4.6-2l1.5,2.2c-1.8,1.6-4,2.5-6.3,2.5c-5.2,0-9.1-3.7-9.1-10.2
		C1654.3,2195.1,1658.7,2191.4,1663.7,2191.4z"/>
	<path class="st30" d="M1674,2182.8h3.2v19.3h0.1l8.3-10.2h3.6l-6.5,7.8l7.4,11.6h-3.6l-5.7-9.4l-3.6,4.2v5.1h-3.2V2182.8z"/>
	<path class="st30" d="M1700.4,2191.4c5,0,7.8,3.6,7.8,9.1c0,0.7,0,1.3-0.1,1.8h-13.1c0.2,4.2,2.8,6.8,6.5,6.8
		c1.8,0,3.4-0.6,4.8-1.5l1.2,2.2c-1.7,1.1-3.8,2-6.4,2c-5.2,0-9.3-3.8-9.3-10.2C1691.7,2195.3,1695.9,2191.4,1700.4,2191.4z
		 M1705.2,2200.1c0-4-1.8-6.2-4.8-6.2c-2.7,0-5.2,2.2-5.6,6.2H1705.2z"/>
	<path class="st30" d="M1712.9,2191.9h2.7l0.3,3.5h0.1c1.3-2.4,3.3-4,5.5-4c0.8,0,1.4,0.1,2.1,0.4l-0.6,2.9
		c-0.6-0.2-1.1-0.3-1.9-0.3c-1.6,0-3.6,1.2-4.9,4.5v12.5h-3.3V2191.9z"/>
	<path class="st30" d="M1723.1,2216.2c2.2-1,3.6-2.7,3.6-4.9c-0.1,0-0.3,0-0.4,0c-1.3,0-2.4-0.8-2.4-2.3c0-1.4,1.1-2.3,2.4-2.3
		c1.7,0,2.8,1.5,2.8,3.9c0,3.4-2,6.1-5.2,7.5L1723.1,2216.2z"/>
	<path class="st30" d="M1742.8,2185.1h8.1c5.8,0,9.7,2,9.7,7.7c0,5.5-4,8.1-9.7,8.1h-4.7v10.4h-3.4V2185.1z M1750.4,2198.2
		c4.6,0,6.8-1.7,6.8-5.4c0-3.8-2.3-5-6.8-5h-4.3v10.4H1750.4z"/>
	<path class="st30" d="M1765.1,2191.9h3.3v11.9c0,3.6,1.1,5.2,3.6,5.2c2,0,3.4-1,5.2-3.3v-13.8h3.3v19.4h-2.7l-0.3-3h-0.1
		c-1.8,2.1-3.7,3.5-6.4,3.5c-4.1,0-6-2.6-6-7.6V2191.9z"/>
	<path class="st30" d="M1790.4,2212.9v6.6h-3.3v-27.6h2.7l0.3,2.2h0.1c1.8-1.5,3.9-2.7,6.2-2.7c5,0,7.7,3.9,7.7,9.9
		c0,6.6-4,10.5-8.4,10.5c-1.8,0-3.6-0.8-5.4-2.2L1790.4,2212.9z M1795.2,2209c3.2,0,5.6-2.9,5.6-7.7c0-4.3-1.4-7.2-5.1-7.2
		c-1.6,0-3.3,0.9-5.2,2.6v10.2C1792.2,2208.5,1793.9,2209,1795.2,2209z"/>
	<path class="st30" d="M1812.6,2212.9v6.6h-3.3v-27.6h2.7l0.3,2.2h0.1c1.8-1.5,3.9-2.7,6.2-2.7c5,0,7.7,3.9,7.7,9.9
		c0,6.6-4,10.5-8.4,10.5c-1.8,0-3.6-0.8-5.4-2.2L1812.6,2212.9z M1817.4,2209c3.2,0,5.6-2.9,5.6-7.7c0-4.3-1.4-7.2-5.1-7.2
		c-1.6,0-3.3,0.9-5.2,2.6v10.2C1814.4,2208.5,1816.1,2209,1817.4,2209z"/>
	<path class="st30" d="M1838.8,2191.4c5,0,7.8,3.6,7.8,9.1c0,0.7,0,1.3-0.1,1.8h-13.1c0.2,4.2,2.8,6.8,6.5,6.8
		c1.8,0,3.4-0.6,4.8-1.5l1.2,2.2c-1.7,1.1-3.8,2-6.4,2c-5.2,0-9.3-3.8-9.3-10.2C1830.1,2195.3,1834.4,2191.4,1838.8,2191.4z
		 M1843.7,2200.1c0-4-1.8-6.2-4.8-6.2c-2.7,0-5.2,2.2-5.6,6.2H1843.7z"/>
	<path class="st30" d="M1851.4,2194.5h-2.9v-2.5l3-0.2l0.4-5.4h2.8v5.4h5.2v2.7h-5.2v10.8c0,2.4,0.8,3.8,3,3.8
		c0.7,0,1.6-0.3,2.2-0.5l0.6,2.5c-1.1,0.4-2.4,0.7-3.6,0.7c-4.2,0-5.6-2.6-5.6-6.5V2194.5z"/>
	<path class="st30" d="M1863.5,2216.2c2.2-1,3.6-2.7,3.6-4.9c-0.1,0-0.3,0-0.4,0c-1.3,0-2.4-0.8-2.4-2.3c0-1.4,1.1-2.3,2.4-2.3
		c1.7,0,2.8,1.5,2.8,3.9c0,3.4-2,6.1-5.2,7.5L1863.5,2216.2z"/>
	<path class="st30" d="M1893.4,2184.6c3.1,0,5.6,1.5,7.2,3.2l-1.9,2.1c-1.4-1.5-3.1-2.4-5.2-2.4c-5,0-8.3,4.1-8.3,10.6
		c0,6.6,3.2,10.8,8.2,10.8c2.5,0,4.3-1,6-2.9l1.9,2c-2,2.4-4.6,3.8-8,3.8c-6.6,0-11.5-5-11.5-13.6
		C1881.6,2189.7,1886.6,2184.6,1893.4,2184.6z"/>
	<path class="st30" d="M1905.6,2182.8h3.3v7.8l-0.1,4c1.8-1.8,3.8-3.2,6.5-3.2c4.1,0,5.9,2.6,5.9,7.6v12.3h-3.3v-11.9
		c0-3.6-1.1-5.2-3.7-5.2c-2,0-3.4,1-5.3,3v14.1h-3.3V2182.8z"/>
	<path class="st30" d="M1934.6,2191.4c5,0,7.8,3.6,7.8,9.1c0,0.7,0,1.3-0.1,1.8h-13.1c0.2,4.2,2.8,6.8,6.5,6.8
		c1.8,0,3.4-0.6,4.8-1.5l1.2,2.2c-1.7,1.1-3.8,2-6.4,2c-5.2,0-9.3-3.8-9.3-10.2C1925.9,2195.3,1930.2,2191.4,1934.6,2191.4z
		 M1939.5,2200.1c0-4-1.8-6.2-4.8-6.2c-2.7,0-5.2,2.2-5.6,6.2H1939.5z"/>
	<path class="st30" d="M1956,2185.5c-0.7-0.3-1.5-0.5-2.2-0.5c-1.8,0-2.7,1.3-2.7,3.8v3.1h4.1v2.7h-4.1v16.8h-3.3v-16.8h-2.6v-2.5
		l2.6-0.2v-3.1c0-4,1.8-6.4,5.7-6.4c1.2,0,2.4,0.3,3.2,0.6L1956,2185.5z"/>
	<path class="st30" d="M1955.5,2216.2c2.2-1,3.6-2.7,3.6-4.9c-0.1,0-0.3,0-0.4,0c-1.3,0-2.4-0.8-2.4-2.3c0-1.4,1.1-2.3,2.4-2.3
		c1.7,0,2.8,1.5,2.8,3.9c0,3.4-2,6.1-5.2,7.5L1955.5,2216.2z"/>
	<path class="st30" d="M1987.1,2203.3h-9.6l-2.5,8h-3.4l8.9-26.2h3.8l8.9,26.2h-3.5L1987.1,2203.3z M1986.3,2200.6l-1.2-4
		c-0.9-2.9-1.8-5.8-2.6-8.8h-0.2c-0.8,3-1.7,5.9-2.6,8.8l-1.3,4H1986.3z"/>
	<path class="st30" d="M1996.4,2191.9h2.7l0.3,2.8h0.1c1.8-1.8,3.8-3.3,6.5-3.3c4.1,0,5.9,2.6,5.9,7.6v12.3h-3.3v-11.9
		c0-3.6-1.1-5.2-3.7-5.2c-2,0-3.4,1-5.3,3v14.1h-3.3V2191.9z"/>
	<path class="st30" d="M2017.8,2206.9c1.7,1.4,3.4,2.3,5.7,2.3c2.6,0,3.8-1.4,3.8-3c0-2-2.3-2.9-4.4-3.7c-2.8-1-5.8-2.3-5.8-5.6
		c0-3.1,2.5-5.5,6.7-5.5c2.4,0,4.6,1,6,2.2l-1.6,2.1c-1.3-1-2.7-1.7-4.4-1.7c-2.4,0-3.6,1.3-3.6,2.8c0,1.8,2.1,2.5,4.3,3.4
		c2.8,1,5.9,2.2,5.9,5.9c0,3.2-2.5,5.8-7.1,5.8c-2.8,0-5.4-1.2-7.2-2.7L2017.8,2206.9z"/>
	<path class="st30" d="M2034.5,2185.7c0-1.3,1-2.1,2.3-2.1c1.3,0,2.3,0.8,2.3,2.1c0,1.2-1,2.1-2.3,2.1
		C2035.5,2187.9,2034.5,2187,2034.5,2185.7z M2035.1,2191.9h3.3v19.4h-3.3V2191.9z"/>
	<path class="st30" d="M2044.9,2182.8h3.3v7.8l-0.1,3.5c1.8-1.6,3.9-2.7,6.1-2.7c5,0,7.7,3.9,7.7,9.9c0,6.6-4,10.5-8.4,10.5
		c-1.8,0-3.8-0.9-5.6-2.4h-0.1l-0.3,1.9h-2.6V2182.8z M2053,2209c3.2,0,5.6-2.9,5.6-7.7c0-4.3-1.4-7.2-5.1-7.2
		c-1.6,0-3.4,0.9-5.2,2.6v10.2C2049.9,2208.5,2051.7,2209,2053,2209z"/>
	<path class="st30" d="M2067.1,2182.8h3.3v24.8c0,1,0.4,1.4,0.9,1.4c0.2,0,0.4,0,0.7-0.1l0.4,2.5c-0.4,0.2-1,0.3-1.9,0.3
		c-2.5,0-3.5-1.6-3.5-4.4V2182.8z"/>
	<path class="st30" d="M2084.6,2191.4c5,0,7.8,3.6,7.8,9.1c0,0.7,0,1.3-0.1,1.8h-13.1c0.2,4.2,2.8,6.8,6.5,6.8
		c1.8,0,3.4-0.6,4.8-1.5l1.2,2.2c-1.7,1.1-3.8,2-6.4,2c-5.2,0-9.3-3.8-9.3-10.2C2075.9,2195.3,2080.2,2191.4,2084.6,2191.4z
		 M2089.5,2200.1c0-4-1.8-6.2-4.8-6.2c-2.7,0-5.2,2.2-5.6,6.2H2089.5z"/>
	<path class="st30" d="M2116.2,2199c0-2.5-0.8-4.9-4-4.9c-2.3,0-4.3,1-5.8,2.1l-1.3-2.3c1.8-1.2,4.5-2.5,7.6-2.5
		c4.8,0,6.8,3.2,6.8,8v11.9h-2.7l-0.3-2.3h-0.1c-1.9,1.5-4,2.8-6.4,2.8c-3.3,0-5.7-2-5.7-5.5C2104.3,2202,2108,2199.9,2116.2,2199z
		 M2110.9,2209.1c1.9,0,3.4-0.9,5.3-2.6v-5.4c-6.5,0.8-8.7,2.4-8.7,4.9C2107.5,2208.2,2109,2209.1,2110.9,2209.1z"/>
	<path class="st30" d="M2125.7,2191.9h2.7l0.3,2.8h0.1c1.8-1.8,3.8-3.3,6.5-3.3c4.1,0,5.9,2.6,5.9,7.6v12.3h-3.3v-11.9
		c0-3.6-1.1-5.2-3.7-5.2c-2,0-3.4,1-5.3,3v14.1h-3.3V2191.9z"/>
	<path class="st30" d="M2154.6,2191.4c2.2,0,3.7,0.8,5.4,2.2l-0.2-3.3v-7.5h3.3v28.5h-2.7l-0.3-2.3h-0.1c-1.5,1.5-3.6,2.8-5.9,2.8
		c-4.9,0-8-3.7-8-10.2C2146.2,2195.3,2150.2,2191.4,2154.6,2191.4z M2155,2209c1.8,0,3.4-0.9,5-2.7v-10.2c-1.6-1.5-3.1-2-4.7-2
		c-3.1,0-5.6,3-5.6,7.4C2149.6,2206.2,2151.6,2209,2155,2209z"/>
	<path class="st30" d="M2190.1,2203.3h-9.6l-2.5,8h-3.4l8.9-26.2h3.8l8.9,26.2h-3.5L2190.1,2203.3z M2189.2,2200.6l-1.2-4
		c-0.9-2.9-1.8-5.8-2.6-8.8h-0.2c-0.8,3-1.7,5.9-2.6,8.8l-1.3,4H2189.2z"/>
	<path class="st30" d="M2199.4,2182.8h3.2v19.3h0.1l8.3-10.2h3.6l-6.5,7.8l7.4,11.6h-3.6l-5.7-9.4l-3.6,4.2v5.1h-3.2V2182.8z"/>
	<path class="st30" d="M2219.2,2182.8h3.2v19.3h0.1l8.3-10.2h3.6l-6.5,7.8l7.4,11.6h-3.6l-5.7-9.4l-3.6,4.2v5.1h-3.2V2182.8z"/>
	<path class="st30" d="M2249.6,2199c0-2.5-0.8-4.9-4-4.9c-2.3,0-4.3,1-5.8,2.1l-1.3-2.3c1.8-1.2,4.5-2.5,7.6-2.5
		c4.8,0,6.8,3.2,6.8,8v11.9h-2.7l-0.3-2.3h-0.1c-1.9,1.5-4,2.8-6.4,2.8c-3.3,0-5.7-2-5.7-5.5C2237.6,2202,2241.3,2199.9,2249.6,2199
		z M2244.3,2209.1c1.9,0,3.4-0.9,5.3-2.6v-5.4c-6.5,0.8-8.7,2.4-8.7,4.9C2240.9,2208.2,2242.4,2209.1,2244.3,2209.1z"/>
	<path class="st30" d="M2277.6,2184.6c3.1,0,5.6,1.5,7.2,3.2l-1.9,2.1c-1.4-1.5-3.1-2.4-5.2-2.4c-5,0-8.3,4.1-8.3,10.6
		c0,6.6,3.2,10.8,8.2,10.8c2.5,0,4.3-1,6-2.9l1.9,2c-2,2.4-4.6,3.8-8,3.8c-6.6,0-11.5-5-11.5-13.6
		C2265.8,2189.7,2270.8,2184.6,2277.6,2184.6z"/>
	<path class="st30" d="M2289.8,2182.8h3.3v24.8c0,1,0.4,1.4,0.9,1.4c0.2,0,0.4,0,0.7-0.1l0.4,2.5c-0.4,0.2-1,0.3-1.9,0.3
		c-2.5,0-3.5-1.6-3.5-4.4V2182.8z"/>
	<path class="st30" d="M2299.7,2191.9h3.3v11.9c0,3.6,1.1,5.2,3.6,5.2c2,0,3.4-1,5.2-3.3v-13.8h3.3v19.4h-2.7l-0.3-3h-0.1
		c-1.8,2.1-3.7,3.5-6.4,3.5c-4.1,0-6-2.6-6-7.6V2191.9z"/>
	<path class="st30" d="M2321.2,2206.9c1.7,1.4,3.4,2.3,5.7,2.3c2.6,0,3.8-1.4,3.8-3c0-2-2.3-2.9-4.4-3.7c-2.8-1-5.8-2.3-5.8-5.6
		c0-3.1,2.5-5.5,6.7-5.5c2.4,0,4.6,1,6,2.2l-1.6,2.1c-1.3-1-2.7-1.7-4.4-1.7c-2.4,0-3.6,1.3-3.6,2.8c0,1.8,2.1,2.5,4.3,3.4
		c2.8,1,5.9,2.2,5.9,5.9c0,3.2-2.5,5.8-7.1,5.8c-2.8,0-5.4-1.2-7.2-2.7L2321.2,2206.9z"/>
	<path class="st30" d="M2339.1,2194.5h-2.9v-2.5l3-0.2l0.4-5.4h2.8v5.4h5.2v2.7h-5.2v10.8c0,2.4,0.8,3.8,3,3.8
		c0.7,0,1.6-0.3,2.2-0.5l0.6,2.5c-1.1,0.4-2.4,0.7-3.6,0.7c-4.2,0-5.6-2.6-5.6-6.5V2194.5z"/>
	<path class="st30" d="M2358.9,2191.4c5,0,7.8,3.6,7.8,9.1c0,0.7,0,1.3-0.1,1.8h-13.1c0.2,4.2,2.8,6.8,6.5,6.8
		c1.8,0,3.4-0.6,4.8-1.5l1.2,2.2c-1.7,1.1-3.8,2-6.4,2c-5.2,0-9.3-3.8-9.3-10.2C2350.2,2195.3,2354.5,2191.4,2358.9,2191.4z
		 M2363.8,2200.1c0-4-1.8-6.2-4.8-6.2c-2.7,0-5.2,2.2-5.6,6.2H2363.8z"/>
	<path class="st30" d="M2371.5,2191.9h2.7l0.3,3.5h0.1c1.3-2.4,3.3-4,5.5-4c0.8,0,1.4,0.1,2.1,0.4l-0.6,2.9
		c-0.6-0.2-1.1-0.3-1.9-0.3c-1.6,0-3.6,1.2-4.9,4.5v12.5h-3.3V2191.9z"/>
	<path class="st30" d="M2388.2,2200.2c0-6.1-1.5-12.1-4.6-17.2l2-1c3.3,5.4,5.3,11.1,5.3,18.2s-2,12.8-5.3,18.2l-2-1
		C2386.7,2212.3,2388.2,2206.3,2388.2,2200.2z"/>
</g>
</svg>
